<?xml version="1.0" encoding="UTF-8"?><svg id="Layer_2" xmlns="http://www.w3.org/2000/svg" xmlns:xlink="http://www.w3.org/1999/xlink" viewBox="0 0 333 333"><defs><style>.cls-1{fill:#f6f6f6;}.cls-2{fill:#7e194a;}.cls-3{fill:url(#radial-gradient);}.cls-4{stroke-width:.433px;}.cls-4,.cls-5,.cls-6{fill:#fdfbf5;stroke:#fdfbf5;stroke-miterlimit:10;}.cls-7{fill:#cac8c9;}.cls-5{stroke-width:.403px;}.cls-6{stroke-width:.426px;}</style><radialGradient id="radial-gradient" cx="166.5" cy="166.501" fx="166.5" fy="166.501" r="64.59" gradientUnits="userSpaceOnUse"><stop offset="0" stop-color="#f9e19b"/><stop offset="1" stop-color="#fad82e"/></radialGradient></defs><g id="Layer_1-2"><circle class="cls-6" cx="166.5" cy="166.5" r="126.483"/><path class="cls-2" d="m166.5,0C74.545,0,0,74.545,0,166.5s74.545,166.5,166.5,166.5,166.5-74.545,166.5-166.5S258.455,0,166.5,0Zm1.733,290.089c-68.256,0-123.589-55.333-123.589-123.589s55.333-123.589,123.589-123.589,123.589,55.333,123.589,123.589-55.333,123.589-123.589,123.589Z"/><path class="cls-4" d="m17.726,141.305l1.803,1.593-1.693,1.846,1.3,1.102-1.769,1.941-1.761-1.587,1.649-1.83-1.257-1.119,1.728-1.946Zm9.149-1.423c.169-.119.378-.162.626-.129.536.072.948.236,1.235.492.287.258.398.634.332,1.133l-.133.996c1.256.548,2.118,1.455,2.586,2.722.468,1.267.568,2.905.301,4.912-.184,1.384-.528,2.522-1.032,3.412-.503.891-1.112,1.526-1.827,1.903-.714.377-1.491.509-2.329.397-.66-.088-1.427-.315-2.301-.68l-.426-2.325.155-.213c.361.12.684.219.967.299s.541.136.775.167c.632.083,1.181.027,1.648-.168.467-.196.858-.588,1.174-1.174.315-.586.543-1.408.684-2.463.155-1.166.194-2.148.12-2.945-.076-.799-.246-1.362-.51-1.691l-.26-.097-.062.459c-.19,1.433-.588,2.456-1.195,3.068s-1.39.855-2.353.727c-.66-.088-1.306-.329-1.939-.723-.632-.393-1.13-.887-1.492-1.477-.362-.591-.502-1.196-.418-1.821.086-.65.372-1.2.859-1.65.486-.45,1.107-.775,1.861-.979.755-.202,1.576-.279,2.465-.231l.169-1.267c.042-.318.148-.538.318-.655Zm-.761,3.977c-.388-.024-.767.011-1.136.108-.37.095-.68.244-.93.444-.25.202-.395.437-.43.708-.029.218.019.433.144.649.126.216.294.398.505.543.212.145.428.233.647.262.275.036.503-.094.682-.396.18-.3.318-.809.413-1.526l.105-.793Z"/><path class="cls-4" d="m18.724,127.664l1.613,1.768-1.978,1.726-1.548-1.772,1.913-1.722Zm3.349-1.121l1.609,1.788-1.893,1.64,1.161,1.265-1.974,1.706-1.568-1.778,1.848-1.629-1.117-1.275,1.934-1.716Zm9.18-3.748c.18-.091.391-.106.633-.046.525.132.915.343,1.171.63.257.289.324.676.201,1.163-.13.516-.343,1.034-.639,1.557-.296.523-.628.948-.996,1.273.408.823.479,1.763.213,2.819l-.006.02-.005.02c-.136.541-.305,1.014-.506,1.417-.202.402-.438.772-.708,1.107.237.593.255,1.281.058,2.066-.151.597-.378,1.148-.685,1.655-.305.506-.627.918-.965,1.236.207.484.303,1.04.286,1.67-.015.631-.141,1.413-.376,2.346l-2.383-1.183c.16-.636.261-1.125.305-1.467.043-.342.048-.619.015-.828-.153-.125-.435-.286-.843-.483-.408-.197-.839-.388-1.292-.574l.267-2.848.101-.062c1.104.725,1.867,1.241,2.29,1.549.17-.273.331-.586.483-.937.152-.35.269-.688.351-1.013.081-.325.083-.584.003-.776-.097-.126-.54-.381-1.33-.767l-.831-.446.221-2.667.102-.059c1.07.628,1.876,1.149,2.416,1.558.26-.461.456-.96.591-1.495.121-.48.146-.89.074-1.23-.208-.14-.554-.272-1.037-.395-.672-.169-1.324-.275-1.957-.319l-.298-2.735.096-.125c.493.081.943.173,1.346.275.915.232,1.676.531,2.283.9.197-.268.378-.592.546-.975.169-.382.31-.804.426-1.265.072-.283.198-.471.378-.563Z"/><path class="cls-4" d="m29.687,115.191c.616-.401,1.326-.651,2.126-.748.802-.097,1.568-.013,2.297.249.835.301,1.442.746,1.818,1.334.378.589.434,1.252.169,1.987-.204.564-.534,1.144-.99,1.737-.457.592-1.041,1.138-1.751,1.64.292.535.427,1.074.401,1.614s-.168,1.172-.428,1.894l-2.254-1.413c.095-.262.136-.489.123-.68-.013-.19-.087-.391-.225-.604-.137-.213-.374-.505-.711-.88-.455-.535-.84-1.029-1.156-1.486-.314-.454-.552-.958-.713-1.515-.161-.555-.147-1.096.042-1.621.218-.604.635-1.107,1.252-1.508Zm3.872,1.707c-.283-.072-.634-.1-1.054-.081-.419.019-.796.093-1.13.223-.334.129-.541.305-.621.527s-.023.483.172.78c.194.299.516.705.964,1.221.389-.301.722-.613.999-.933.279-.319.469-.624.573-.911.104-.289.136-.563.099-.828Z"/><path class="cls-4" d="m37.797,113.264c-.273.498-.492.863-.656,1.096l-2.149-1.359-.017-.166c.14-.18.324-.492.55-.934.227-.445.421-.85.582-1.216.225-.505.425-1.043.602-1.615.177-.57.25-.993.218-1.263-.594-.098-1.415-.024-2.465.223-1.049.248-2.059.577-3.029.985l-1.458-2.41.085-.191c1.493-.531,2.869-.872,4.127-1.025,1.259-.153,2.3-.047,3.124.318.697.308,1.207.767,1.529,1.376.322.608.448,1.325.379,2.149-.07.825-.314,1.708-.732,2.655-.187.421-.417.881-.69,1.377Z"/><path class="cls-4" d="m34.768,88.543l1.075,2.152-2.262,1.076.793,1.51-2.368,1.138-1.039-2.133,2.216-1.079-.746-1.508,2.331-1.157Zm11.876,3.348c.459.261.772.572.94.933.17.361.13.761-.118,1.198-.386.68-.815,1.212-1.288,1.594-.471.381-.996.603-1.571.662-.132.681-.356,1.299-.673,1.857-.372.658-.795,1.176-1.267,1.557-.472.383-.96.604-1.464.662-.504.059-.986-.041-1.443-.301-.507-.288-.922-.744-1.244-1.369-.323-.625-.523-1.397-.598-2.316-.076-.918-.002-1.924.22-3.018l-.832-.473.386-2.576.148-.132,5.425,3.083c.325.183.603.278.833.279.23.002.454-.1.674-.303.22-.204.46-.538.722-.999.283-.498.666-.609,1.149-.336Zm-4.329,3.83l-.343-.194-1.718-.976c-.217.747-.336,1.426-.357,2.037-.02.613.077,1.054.29,1.321.278.044.577-.061.897-.314.319-.253.581-.56.785-.921.205-.359.354-.677.446-.953Z"/><path class="cls-4" d="m52.703,81.925c.2-.024.404.033.612.172.978.657,1.202,1.38.671,2.168-1.271,1.889-2.747,3.176-4.429,3.862-.049.944-.244,1.903-.583,2.878-.338.976-.894,2.037-1.665,3.185l-1.841-1.921c.46-.684.838-1.321,1.136-1.912.298-.591.52-1.182.667-1.772-1.293.258-2.387.641-3.281,1.15l-.207-.063-1.442-1.956c.09-.63.274-1.297.556-2,.281-.702.635-1.373,1.065-2.01.453-.671.965-1.273,1.541-1.803.574-.531,1.172-.948,1.796-1.254l.241.087,1.497,1.688c.045.703.147,1.547.305,2.529.01.158.024.297.043.42.018.122.034.222.049.299.423-.355.848-.802,1.276-1.339.428-.536.907-1.198,1.437-1.987.171-.255.357-.395.559-.42Zm-6.75,4.927c.415-.094.935-.196,1.558-.303-.016-.794-.155-1.67-.413-2.627-.567.468-1.028.967-1.382,1.494-.362.539-.658,1.14-.886,1.803.335-.149.709-.272,1.124-.367Z"/><path class="cls-4" d="m53.524,74.119c.713-.181,1.464-.19,2.254-.024.79.166,1.488.491,2.095.975.694.552,1.125,1.168,1.293,1.847s.009,1.324-.479,1.935c-.374.47-.873.912-1.497,1.327-.623.414-1.35.744-2.185.99.105.601.059,1.155-.139,1.658-.197.503-.535,1.056-1.014,1.656l-1.68-2.063c.175-.218.286-.42.335-.603.049-.184.043-.398-.018-.644-.062-.245-.192-.598-.39-1.061-.26-.652-.466-1.245-.617-1.778-.153-.532-.216-1.088-.189-1.665.026-.577.213-1.083.562-1.52.4-.503.957-.845,1.669-1.028Zm3.119,2.862c-.246-.16-.569-.298-.973-.416-.403-.116-.783-.167-1.142-.151-.358.015-.612.115-.758.3-.147.184-.176.45-.088.794.088.346.262.836.52,1.466.466-.161.881-.349,1.246-.562.366-.214.644-.441.835-.68.189-.239.31-.488.36-.751Z"/><path class="cls-4" d="m61.363,73.765c-.963.056-1.991-.407-3.086-1.388l-7.091-6.36,1.129-2.224.232-.072,7.34,6.582c.35.314.671.507.96.578.29.073.574.037.852-.107.278-.145.594-.414.949-.81.196-.217.389-.33.581-.337.192-.006.39.083.597.268.413.371.661.744.744,1.119.083.374-.039.742-.365,1.108-.932,1.039-1.88,1.587-2.842,1.643Z"/><path class="cls-4" d="m67.663,60.874c.585-.271,1.066-.573,1.444-.905l1.268,2.251c-.47.579-.965,1.286-1.483,2.124-.518.837-1.036,1.761-1.552,2.771-.687,1.353-1.277,2.397-1.769,3.133-.493.734-1.023,1.381-1.592,1.936l-1.416-2.252c.628-.616,1.174-1.223,1.634-1.82s1.029-1.459,1.704-2.586c.242-.431.481-.836.717-1.213s.385-.614.445-.713c-.198.077-.549.198-1.053.361-.869.252-1.549.5-2.04.747-.49.248-.9.534-1.229.856-.31.303-.572.609-.787.918-.216.309-.435.658-.657,1.05h-.147l-.943-2.279c.083-.276.216-.563.404-.861.186-.299.398-.566.638-.801.329-.322.748-.598,1.259-.825.509-.229,1.342-.53,2.499-.907,1.187-.385,2.072-.713,2.656-.986Zm4.177,10.773l-2.693.454-.424-2.439,2.648-.47.468,2.454Z"/><path class="cls-4" d="m74.435,56.495l-1.508-1.908,4.865-3.845,1.508,1.908-4.865,3.845Z"/><path class="cls-4" d="m85.518,37.039l-.04,2.405-2.504-.089.007,1.705-2.625-.085.063-2.369,2.464.065.034-1.682,2.602.05Zm8.99,8.452c.285.442.421.862.404,1.261-.016.399-.235.734-.658,1.007-.655.426-1.281.698-1.877.82-.596.12-1.161.075-1.699-.138-.432.542-.917.988-1.455,1.337-.634.409-1.248.676-1.843.796-.595.123-1.13.093-1.604-.088-.475-.18-.854-.491-1.142-.934-.315-.488-.474-1.084-.471-1.787.002-.704.182-1.481.538-2.331s.887-1.71,1.589-2.577l-.52-.804,1.532-2.105.192-.051,3.391,5.239c.204.314.406.527.609.633.205.109.45.122.739.042.29-.08.658-.264,1.102-.553.482-.31.872-.233,1.174.233Zm-5.608,1.399l-.214-.331-1.073-1.659c-.538.563-.957,1.111-1.257,1.643-.301.533-.418.969-.353,1.306.227.168.54.212.94.135.401-.077.774-.229,1.122-.453.347-.226.626-.438.834-.641Z"/><path class="cls-4" d="m101.046,41.921c.582,1.025.47,1.765-.332,2.219-.692.393-1.372.681-2.037.868-.666.185-1.253.239-1.763.161-.183.471-.448.901-.798,1.289-.349.39-.809.746-1.381,1.068l-.6.341-.79-2.541.42-.237c.255-.145.492-.307.711-.488.22-.179.357-.332.413-.46-.081-.653-.347-1.619-.796-2.894l2.044-1.877.254.025c.202.697.365,1.311.488,1.838.122.528.207,1.018.255,1.469.781-.122,1.705-.488,2.774-1.093.486-.275.866-.173,1.139.311Zm.66,5.076l-.183,2.398-2.475-.248-.132,1.724-2.596-.25.185-2.351,2.501.208.123-1.696,2.577.215Z"/><path class="cls-4" d="m96.367,33.798c.411-.208.726-.373.945-.499-.232-.118-.443-.267-.637-.449-.193-.183-.346-.385-.457-.607-.268-.534-.321-1.042-.158-1.528.163-.485.531-.872,1.104-1.161.449-.226,1.007-.375,1.675-.445l.327,1.534c-.425.059-.755.147-.992.267-.213.106-.35.245-.413.417-.062.171-.043.357.056.553.081.162.197.298.347.409.149.11.314.191.496.239.748-.438,1.294-.766,1.637-.986l.832,1.327c-1.124.751-2.421,1.527-3.894,2.33l-.868-1.401Zm4.49,1.35c.62.496,1.213,1.058,1.778,1.69.566.631.957,1.162,1.175,1.596.249.496.398.996.447,1.497.05.504-.013,1-.187,1.493-.162.453-.457.87-.886,1.247-.427.379-1.102.8-2.025,1.263l-.599.302-.66-2.579.566-.283c.39-.196.751-.393,1.082-.592.334-.197.552-.353.652-.466-.007-.044-.035-.116-.084-.214-.168-.335-.474-.701-.916-1.099-.443-.398-.992-.845-1.647-1.338l1.117-2.424.186-.093Z"/><path class="cls-4" d="m108.042,39.456c-.903-.337-1.657-1.178-2.261-2.518l-3.916-8.682,1.932-1.578.242.028,4.052,8.987c.193.429.41.737.645.918.235.184.51.264.823.245s.711-.138,1.194-.356c.268-.12.49-.145.668-.074.178.072.325.235.439.488.228.506.304.946.228,1.323s-.336.665-.781.866c-1.274.573-2.361.691-3.264.354Z"/><path class="cls-4" d="m110.739,36.52l.196-.079c.405-.163.781-.33,1.129-.5.349-.169.578-.307.689-.41-.003-.045-.026-.117-.066-.221-.14-.348-.411-.733-.813-1.152-.404-.421-.922-.916-1.557-1.481l1.335-2.331.193-.077c.589.539,1.136,1.146,1.637,1.818s.846,1.239,1.032,1.703c.201.501.303,1.006.304,1.514.002.508-.097,1.003-.293,1.486-.2.439-.528.83-.986,1.171s-1.166.704-2.124,1.09l-.234.093-.441-2.625Zm5.597,6.064l-2.662-.61.541-2.414,2.627.58-.506,2.444Z"/><path class="cls-4" d="m125.935,31.254c.175.103.301.272.381.508.171.513.205.955.101,1.327-.105.37-.395.637-.872.795-.635.213-1.189.297-1.662.249-.01.938-.355,1.876-1.037,2.814-.68.936-1.534,1.743-2.558,2.422l-1.832-1.381.067-.264c1.094-.776,1.895-1.498,2.402-2.162.506-.666.817-1.355.932-2.067-.639-.722-1.479-1.602-2.52-2.645l1.116-2.61.219-.073c.185.246.374.489.566.733.191.242.379.488.564.732.142.158.251.292.334.405.081.111.147.196.194.251.357.452.666.769.926.952.26.184.535.27.826.261.292-.009.683-.096,1.172-.261.278-.092.505-.087.678.015Z"/><path class="cls-4" d="m135.37,28.772c.171.097.291.28.363.549.15.563.148,1.019-.006,1.367-.152.35-.45.584-.897.701l-1.174.313c.206.175.383.375.53.602.148.226.255.467.322.722.135.508.115.994-.058,1.456-.172.463-.463.862-.873,1.201-.407.338-.896.582-1.463.733-.823.22-1.59.258-2.298.116-.71-.141-1.341-.461-1.892-.96s-.989-1.165-1.312-1.997l-1.256.334-.121-2.659.83-.221c-.043-.921.034-1.884.229-2.89.196-1.005.488-1.94.88-2.805l1.394-1.361.156-.063c1.161.452,2.047.919,2.659,1.402.612.482,1,1.025,1.16,1.628.099.375.112.804.036,1.281-.074.479-.221.877-.441,1.193l2.572-.683c.269-.072.489-.058.66.04Zm-7.076,1.838c.681-.239,1.191-.6,1.528-1.084.336-.485.425-1.028.264-1.63-.071-.269-.199-.522-.383-.761-.184-.237-.449-.484-.795-.735-.507,1.296-.711,2.7-.614,4.209Zm3.726,2.333c-.285-.219-.634-.365-1.049-.441-.415-.076-.862-.051-1.341.076-.301.08-.584.198-.85.355.293.555.703.94,1.23,1.159.526.219,1.089.248,1.691.088.191-.05.36-.118.506-.198.145-.082.258-.169.336-.261-.065-.299-.24-.557-.525-.776Z"/><path class="cls-4" d="m145.661,26.914c.158.126.261.31.307.555.101.532.076.974-.078,1.327-.152.355-.476.578-.969.671-.618.118-1.23.076-1.838-.127-.606-.201-1.178-.513-1.712-.933-.154.467-.433.865-.839,1.196s-.939.613-1.599.844c-.659.233-1.491.443-2.492.633l-1.853.353.07-2.66,2.14-.407c.879-.168,1.53-.344,1.959-.531.425-.187.703-.391.831-.614-.384-.378-1.071-.846-2.059-1.408-.988-.559-1.961-1.045-2.921-1.455l-.13-.123.052-2.974,6.425-5.012.208.087-.256,3.246-3.973,3c.902.478,1.678.915,2.33,1.314.652.398,1.273.809,1.866,1.232.658.468,1.16.813,1.508,1.036.349.223.732.405,1.149.543.418.14.812.175,1.182.104.301-.057.531-.023.691.102Z"/><path class="cls-4" d="m144.962,26.909c.748-.095,1.291-.257,1.627-.483.048-.397.03-.912-.051-1.544l-1.201-9.283,2.328-.951.204.101,1.25,9.673c.151,1.169.074,2.106-.228,2.808-.304.703-.795,1.232-1.474,1.586-.68.353-1.572.602-2.681.744l.228-2.65Z"/><path class="cls-4" d="m152.266,28.799l-.182-.11-1.21-13.734,2.403-.86.222.106,1.161,13.886-2.395.712Z"/><path class="cls-4" d="m162.032,21.382c.554.457.99,1.083,1.307,1.876.315.793.492,1.675.527,2.643.037.985-.187,1.926-.67,2.824-.483.9-1.235,1.641-2.254,2.229-1.019.585-2.282.912-3.789.983l-1.329-1.927.14-.234c1.466-.069,2.67-.312,3.608-.729.938-.416,1.591-.985,1.96-1.706-.506.102-1.071.165-1.693.189-.962.035-1.696-.159-2.201-.585-.504-.425-.77-1.025-.8-1.801-.024-.65.108-1.316.398-1.992.289-.676.69-1.243,1.204-1.699.513-.456,1.085-.697,1.713-.72.698-.026,1.324.19,1.879.648Zm-2.794,3.777c.219.089.574.125,1.063.106.446-.016.933-.069,1.462-.158-.105-.537-.306-.993-.607-1.373-.3-.376-.639-.558-1.016-.544-.237.01-.45.09-.64.243-.191.152-.341.342-.452.567-.109.228-.161.451-.152.673.008.234.123.397.343.486Z"/><path class="cls-4" d="m180.492,26.892c-.033.525-.173.943-.424,1.254-.249.312-.626.452-1.127.422-.782-.048-1.448-.2-1.998-.457-.55-.255-.979-.629-1.285-1.12-.669.181-1.323.251-1.964.213-.753-.047-1.405-.199-1.956-.454-.55-.256-.964-.598-1.238-1.025-.275-.427-.396-.902-.363-1.428.036-.581.263-1.154.683-1.719.419-.565,1.024-1.084,1.817-1.555.791-.472,1.727-.848,2.808-1.131l.058-.955,2.483-.786.184.074-.383,6.228c-.023.372.015.664.114.871.1.207.289.364.57.472.279.107.684.177,1.215.209.57.035.839.329.805.884Zm-2.213-12.138l-1.461,1.91-1.961-1.559-1.008,1.376-2.062-1.627,1.458-1.87,1.942,1.516,1.026-1.333,2.065,1.586Zm-3.128,9.934l.024-.393.121-1.972c-.767.133-1.429.325-1.988.575-.557.25-.911.531-1.059.841.083.269.31.492.676.667.369.175.76.275,1.173.3.413.027.763.02,1.052-.018Z"/><path class="cls-4" d="m187.879,27.909c-.143,1.169-.671,1.699-1.586,1.588-.79-.096-1.508-.268-2.153-.514-.646-.247-1.151-.552-1.513-.918-.428.27-.898.457-1.409.562-.513.105-1.094.118-1.746.04l-.687-.084.876-2.513.477.058c.292.037.578.047.861.033.284-.015.485-.058.607-.126.324-.575.682-1.51,1.079-2.803l2.758-.293.19.171c-.251.681-.485,1.27-.701,1.768-.215.498-.438.943-.668,1.334.702.364,1.662.621,2.881.769.555.067.798.376.732.927Zm-2.487,4.474l-1.571,1.82-1.843-1.669-1.131,1.306-1.939-1.744,1.545-1.782,1.888,1.655,1.107-1.29,1.945,1.703Z"/><path class="cls-4" d="m198.034,29.227c.102.175.132.385.085.631-.098.531-.283.933-.555,1.207-.271.274-.653.365-1.147.273-.618-.114-1.173-.378-1.665-.786-.491-.41-.911-.907-1.257-1.493-.312.378-.717.65-1.215.811-.499.161-1.099.229-1.797.205s-1.549-.129-2.551-.316l-1.854-.344,1.031-2.453,2.142.399c.877.163,1.55.235,2.016.216s.797-.109.999-.269c-.221-.493-.69-1.179-1.407-2.061-.717-.88-1.449-1.686-2.193-2.417l-.076-.162,1.129-2.751,7.806-2.336.163.158-1.42,2.931-4.789,1.351c.665.772,1.23,1.464,1.692,2.07.462.609.893,1.218,1.291,1.827.442.675.784,1.178,1.029,1.513.242.335.533.644.873.925.337.28.692.457,1.064.525.301.056.503.172.606.345Z"/><path class="cls-4" d="m202.285,35.937l-1.786,1.609-1.621-1.888-1.285,1.157-1.706-1.974,1.756-1.574,1.667,1.878,1.259-1.142,1.717,1.933Zm3.026-4.128c-.286,1.144-.877,1.603-1.771,1.378-.772-.194-1.463-.454-2.073-.779-.609-.325-1.072-.691-1.386-1.099-.457.215-.947.341-1.467.381-.523.041-1.101-.019-1.737-.179l-.67-.169,1.182-2.383.468.118c.284.071.568.118.851.138.283.022.488.003.617-.049.393-.53.866-1.412,1.422-2.645l2.772.055.168.193c-.335.645-.641,1.199-.916,1.667-.277.467-.554.88-.83,1.239.651.45,1.57.825,2.763,1.124.541.137.744.473.609,1.01Z"/><path class="cls-4" d="m204.672,30.833l.201.062c.417.125.815.232,1.194.317.378.087.642.124.794.111.026-.035.054-.106.086-.213.109-.358.138-.827.087-1.408-.05-.58-.145-1.289-.285-2.129l2.5-.982.198.06c.122.791.169,1.605.138,2.444-.029.838-.116,1.496-.262,1.973-.156.518-.393.976-.71,1.371-.318.396-.705.722-1.16.975-.431.218-.932.314-1.501.295-.57-.021-1.35-.182-2.338-.48l-.242-.074,1.3-2.323Zm4.548-5.924l-1.687-2.162,1.935-1.544,1.678,2.117-1.926,1.589Z"/><path class="cls-4" d="m211.686,34.713c-.424-.866-.393-1.994.088-3.383l3.126-8.998,2.488.183.157.187-3.236,9.312c-.154.446-.209.816-.163,1.11.044.295.189.543.428.744.241.201.612.388,1.113.562.277.096.456.233.535.407.08.175.074.393-.016.655-.182.524-.429.898-.742,1.118-.314.222-.702.253-1.164.092-1.319-.458-2.19-1.121-2.614-1.987Z"/><path class="cls-4" d="m225.899,38.828c.064.191.05.403-.045.633-.205.502-.469.858-.79,1.07-.322.212-.715.223-1.179.032-.582-.238-1.072-.607-1.47-1.108-.399-.502-.706-1.075-.925-1.718-.384.307-.836.489-1.356.545-.521.056-1.122,0-1.8-.166-.68-.166-1.491-.443-2.435-.831l-1.743-.715,1.511-2.191,2.016.828c.826.339,1.47.548,1.93.623.459.076.803.056,1.032-.059-.116-.527-.434-1.294-.957-2.304-.523-1.008-1.072-1.946-1.653-2.813l-.042-.175,1.668-2.463,8.12-.691.127.187-1.987,2.58-4.966.344c.495.892.905,1.685,1.234,2.373.328.689.626,1.373.891,2.052.294.751.527,1.315.697,1.692.169.376.391.737.666,1.083.273.344.584.588.933.731.284.116.459.271.524.462Z"/><path class="cls-4" d="m228.677,46.257l-2.077,1.21-1.202-2.179-1.493.869-1.267-2.28,2.041-1.181,1.248,2.177,1.465-.86,1.286,2.243Zm3.805-3.423c-.514,1.059-1.187,1.388-2.016.986-.717-.349-1.341-.744-1.87-1.186-.531-.442-.908-.894-1.132-1.359-.491.118-.996.141-1.515.074-.519-.066-1.073-.244-1.663-.53l-.623-.301,1.644-2.092.434.211c.263.129.532.232.804.31.272.077.477.104.613.079.493-.44,1.137-1.206,1.932-2.3l2.703.619.125.222c-.46.564-.872,1.045-1.237,1.445-.365.401-.72.748-1.065,1.044.543.573,1.369,1.127,2.475,1.664.502.244.632.616.39,1.115Z"/><path class="cls-4" d="m242.215,47.715c.052.205.016.416-.107.634-.275.481-.591.799-.952.953-.361.154-.753.11-1.179-.132-.4-.228-.72-.477-.959-.749-.24-.272-.425-.588-.556-.95-.347.186-.689.279-1.025.278-.337,0-.676-.097-1.016-.29-.425-.242-.864-.631-1.313-1.166-.452-.536-.852-1.174-1.201-1.915-.396.158-.782.23-1.159.215s-.747-.098-1.11-.25c-.365-.151-.808-.375-1.329-.671l1.776-1.98c.279.158.51.262.691.31.182.047.365.043.549-.012.184-.054.42-.167.71-.337.908-.52,1.622-.908,2.144-1.161.521-.254,1.057-.416,1.602-.489.547-.072,1.057.026,1.53.296.426.242.733.569.925.98.191.412.304.87.337,1.376.034.507.034,1.157-.001,1.95-.026.528-.014.937.037,1.23.05.292.163.541.337.742.173.202.442.407.806.614.255.145.408.319.461.525Zm-4.371-2.378c.164.022.326.005.485-.047l.007-.14c.095-.79.114-1.417.057-1.881-.057-.463-.184-.749-.378-.861-.194-.11-.47-.091-.826.056-.358.148-.824.401-1.398.761.24.455.489.852.746,1.189.257.339.514.58.769.726.193.11.374.175.538.197Z"/><path class="cls-4" d="m241.664,47.262c.633.411,1.15.642,1.552.689.294-.272.614-.674.964-1.21l5.109-7.84,2.388.786.09.208-5.325,8.172c-.644.987-1.309,1.651-1.996,1.989s-1.403.422-2.151.249c-.746-.172-1.587-.563-2.523-1.172l1.892-1.87Z"/><path class="cls-4" d="m245.974,53.422l-.065-.2,7.982-11.243,2.387.904.1.225-8.118,11.325-2.286-1.01Z"/><path class="cls-4" d="m262.256,63.897c-.341.401-.704.653-1.09.752-.386.101-.772-.012-1.156-.336-.597-.503-1.039-1.024-1.329-1.559-.289-.534-.408-1.09-.36-1.666-.645-.255-1.211-.589-1.703-1.005-.576-.486-1.008-.997-1.296-1.532-.289-.533-.417-1.055-.381-1.56.034-.507.222-.96.562-1.365.376-.444.901-.767,1.573-.969.675-.202,1.47-.255,2.387-.161.917.095,1.892.352,2.927.773l.617-.731,2.46.855.105.17-4.029,4.764c-.242.286-.385.542-.429.767-.045.226.014.464.173.719.161.254.443.552.85.894.436.37.477.767.119,1.191Zm-2.968-4.96l.256-.301,1.275-1.51c-.694-.35-1.341-.592-1.936-.724-.598-.134-1.05-.119-1.353.04-.094.267-.045.58.145.939.19.362.442.675.76.943.315.267.6.472.853.613Zm8.447-6.095l-2.314.658-.64-2.421-1.632.5-.68-2.536,2.286-.628.652,2.377,1.62-.456.708,2.505Z"/><path class="cls-4" d="m274.062,73.158c-.575.562-1.198.897-1.867,1.006-.67.108-1.342.012-2.013-.287-.671-.301-1.32-.769-1.945-1.408-.713-.729-1.224-1.519-1.533-2.369-.63-.108-1.228-.452-1.793-1.03-.431-.44-.781-.922-1.052-1.448-.272-.524-.455-1.015-.55-1.469-.521-.077-1.046-.286-1.575-.627-.53-.343-1.131-.859-1.805-1.548l2.254-1.413c.46.47.823.811,1.092,1.026.269.216.502.364.698.447.186-.067.471-.223.852-.468s.768-.513,1.165-.802l2.289,1.715v.118c-1.195.564-2.034.945-2.517,1.144.144.287.327.589.547.902.219.314.446.59.681.83.234.239.454.375.661.407.156-.019.606-.262,1.348-.733l.816-.475,2.158,1.58v.118c-1.097.585-1.961,1-2.593,1.248.258.463.583.892.971,1.288.596.609,1.108,1.004,1.535,1.184.04-.02.094-.063.164-.13.466-.456.99-1.467,1.572-3.033l2.749.43.07.102c-.793,1.688-1.585,2.92-2.378,3.696Z"/><path class="cls-4" d="m280.841,83.763c-.035.2-.15.376-.343.533-.421.34-.827.523-1.214.549-.39.026-.741-.157-1.057-.549-.44-.543-.74-1.033-.902-1.466-.163-.434-.192-.873-.087-1.317-.606-.156-1.222-.462-1.848-.916-.625-.456-1.22-1.032-1.779-1.728-.211-.261-.448-.589-.713-.985-.267-.396-.477-.747-.633-1.05l2.195-1.287.157.061c.15.275.343.581.581.919.235.337.447.621.631.85.342.423.713.823,1.115,1.199.4.377.779.663,1.135.861l2.104-4.846,2.836.137.144.18c-.44.802-.912,1.686-1.417,2.65-.505.962-.912,1.74-1.221,2.329-.296.561-.483,1.008-.562,1.341-.079.332-.067.633.033.901s.305.593.612.975c.192.238.27.458.235.657Z"/><path class="cls-4" d="m284.8,89.518c-.048.197-.173.368-.376.512-.441.314-.853.476-1.238.484-.385.009-.725-.191-1.016-.6-.325-.456-.59-.982-.796-1.581-.205-.599-.303-1.153-.289-1.659-1.021-.285-1.94-1.001-2.758-2.149l-.232-.325,2.445-1.049.219.307c.486.683.88,1.079,1.181,1.192.569-.133,1.498-.502,2.785-1.11l2.076,1.838.002.254c-.683.283-1.282.513-1.795.689-.512.177-.995.305-1.448.389.175.698.526,1.416,1.052,2.156.171.239.233.456.186.653Zm2.792-6.043l-.014-2.742,2.473-.041.037,2.702-2.496.081Z"/><path class="cls-4" d="m289.98,97.763c-.043.191-.18.363-.415.511-.492.31-.929.443-1.307.401-.381-.042-.691-.257-.937-.648l-.648-1.028c-.106.247-.244.476-.417.684s-.37.381-.592.523c-.447.281-.916.406-1.409.379-.492-.028-.96-.186-1.406-.477-.443-.29-.823-.682-1.135-1.178-.454-.721-.719-1.441-.796-2.16-.076-.72.042-1.417.354-2.092s.817-1.291,1.516-1.846l-.692-1.099,2.501-.908.457.726c.867-.315,1.81-.528,2.829-.641,1.017-.115,1.997-.112,2.94.005l1.713.925.107.132c-.085,1.242-.268,2.227-.547,2.955-.278.729-.681,1.259-1.209,1.591-.328.208-.733.347-1.211.417-.481.071-.904.049-1.271-.066l1.417,2.251c.149.236.201.451.158.642Zm-4.98-1.955c.123-.337.161-.715.109-1.133-.051-.42-.208-.839-.471-1.257-.166-.264-.363-.499-.591-.705-.442.445-.688.951-.74,1.519-.052.568.087,1.115.419,1.64.106.168.219.31.341.425.121.115.237.196.349.243.265-.15.461-.395.584-.731Zm1.12-4.252c.429.579.926.959,1.49,1.135.562.178,1.108.101,1.635-.233.235-.147.439-.345.611-.59.172-.247.328-.573.466-.978-1.39-.1-2.79.124-4.201.666Z"/><path class="cls-4" d="m289.741,97.14c.367.659.717,1.103,1.051,1.333.386-.102.858-.31,1.416-.619l8.179-4.55,1.746,1.813-.019.224-8.526,4.741c-1.029.573-1.927.847-2.693.826-.765-.022-1.437-.282-2.017-.783-.581-.5-1.142-1.24-1.685-2.215l2.547-.769Z"/><path class="cls-4" d="m290.686,104.617l.035-.207,12.303-6.224,1.69,1.913-.015.246-12.463,6.232-1.55-1.96Z"/><path class="cls-4" d="m300.204,121.443c-.489.197-.926.251-1.315.16-.389-.092-.677-.369-.866-.837-.293-.724-.445-1.39-.45-1.997-.007-.608.145-1.156.456-1.644-.452-.525-.8-1.085-1.039-1.681-.284-.699-.428-1.352-.435-1.959-.007-.608.123-1.129.389-1.561.267-.432.645-.746,1.133-.943.539-.219,1.153-.261,1.845-.126.69.136,1.42.456,2.187.968.768.509,1.512,1.192,2.232,2.046l.886-.36,1.779,1.901.014.198-5.784,2.342c-.347.14-.592.3-.737.479-.144.18-.205.418-.18.717.023.299.135.694.335,1.187.214.531.065.9-.449,1.108Zm-.318-5.77l.367-.148,1.831-.742c-.45-.634-.91-1.147-1.377-1.543-.468-.396-.873-.594-1.216-.593-.206.192-.31.492-.308.898,0,.408.077.803.234,1.188.155.383.311.697.47.941Zm10.312-1.466l-2.354-.492.56-2.443-1.676-.314.577-2.563,2.316.51-.53,2.405,1.646.351-.539,2.546Z"/><path class="cls-4" d="m297.362,128.209l-2.321-.632.709-2.385-1.668-.452.735-2.505,2.274.626-.676,2.417,1.641.44-.695,2.49Zm5.109.31c-1.117.376-1.821.128-2.117-.745-.255-.754-.411-1.476-.468-2.163-.056-.688.001-1.275.173-1.761-.427-.269-.798-.612-1.115-1.028-.317-.417-.58-.937-.789-1.558l-.221-.655,2.643-.296.155.457c.093.278.208.542.343.791.136.248.261.413.376.492.659.044,1.655-.036,2.993-.236l1.455,2.36-.07.246c-.724.066-1.357.111-1.899.132-.541.021-1.038.012-1.49-.027-.027.789.157,1.767.55,2.932.178.528.005.883-.52,1.061Z"/><path class="cls-4" d="m304.679,134.392c-.111.169-.286.287-.526.356-.519.148-.964.161-1.329.04-.365-.122-.617-.424-.754-.908-.137-.483-.187-.973-.148-1.472.038-.496.227-.96.567-1.39-.526-.228-.953-.6-1.279-1.118-.327-.516-.634-1.28-.921-2.286l2.656-.166c.205.724.445,1.237.718,1.538.4-.012.907-.105,1.52-.28l9.004-2.557,1.282,2.162-.067.216-9.483,2.694c-.52.147-.886.316-1.099.507-.213.191-.32.432-.324.724-.005.292.072.713.228,1.263.08.282.064.508-.045.678Z"/><path class="cls-4" d="m314.119,139.604l-3.108-3.851c-.453,1.204-.889,2.155-1.307,2.851s-.815,1.194-1.188,1.492c-.372.299-.769.496-1.188.591-1.095.248-2.056-.012-2.883-.777-.827-.765-1.469-2.156-1.923-4.173l-.462-2.042,2.659-.029.296,1.31c.175.777.391,1.512.646,2.202s.483,1.161.682,1.413c.419-.094.858-.605,1.317-1.53.459-.927.948-2.123,1.471-3.59l.119-.133,2.975-.048,5.228,6.25-.08.211-3.253-.146Z"/><path class="cls-5" d="m24.067,183.025l-.343-4.596-2.507.187.297,3.973-1.782-.122-.278-3.72-3.975.296-.161-2.15,10.023-.748.504,6.746-1.778.133Z"/><path class="cls-5" d="m23.217,188.956c-.297.504-.851.807-1.661.909l-4.878.613-.225-1.784.518-.236c-.326-.349-.568-.706-.73-1.071-.159-.364-.267-.754-.318-1.168-.056-.435-.022-.83.101-1.182.122-.352.319-.638.588-.856.27-.219.595-.351.974-.399.811-.102,1.48.225,2.007.98.526.755.898,1.784,1.114,3.084l.17-.021c.287-.036.509-.093.666-.171.157-.077.264-.194.325-.35.058-.154.072-.361.038-.62-.081-.654-.438-1.363-1.064-2.127l1.159-.968c.429.513.765,1.024,1.007,1.535.24.51.401,1.081.481,1.711.114.909.023,1.616-.272,2.121Zm-5.585-2.767c-.101.15-.135.357-.104.62.054.43.253.884.595,1.363l1.338-.169c-.137-.759-.326-1.305-.564-1.637-.241-.332-.499-.48-.776-.446-.226.029-.389.118-.489.269Z"/><path class="cls-5" d="m17.689,193.039c.413-.741,1.257-1.224,2.53-1.449.866-.155,1.618-.106,2.255.145.638.252,1.139.631,1.502,1.137.363.507.599,1.063.706,1.668.076.431.097.832.064,1.203-.034.371-.129.798-.284,1.28l-1.488-.484c.105-.359.166-.657.187-.894.022-.239.012-.47-.028-.696-.086-.484-.342-.84-.766-1.067-.425-.227-1.008-.275-1.75-.142-.703.125-1.163.357-1.38.699s-.285.749-.2,1.224c.051.287.145.549.28.785.138.236.32.493.548.771l-1.198.978c-.727-.79-1.173-1.637-1.333-2.539-.18-1.005-.063-1.878.353-2.618Z"/><path class="cls-5" d="m26.761,204.506l-6.949,1.622-.408-1.751.505-.293c-.688-.666-1.125-1.41-1.319-2.236-.159-.681-.097-1.252.191-1.71.285-.459.754-.765,1.409-.918l4.865-1.135.676,2.007-4.456,1.04c-.403.095-.677.229-.823.404-.145.175-.176.436-.094.786.087.37.354.811.804,1.324l4.923-1.15.676,2.008Z"/><path class="cls-5" d="m20.411,208.258l10.278-2.875.761,1.977-10.47,2.93-.569-2.031Z"/><path class="cls-5" d="m23.262,216.69c-.511-.481-.88-1.083-1.109-1.805-.115-.366-.15-.727-.106-1.084.044-.357.192-.685.445-.983s.62-.523,1.103-.676l3.179-1.006-.386-1.223,1.583-.501.386,1.222,1.493-.473.918,1.922-1.774.562.588,1.861-1.647.293-.525-1.654-2.867.908c-.297.094-.488.212-.571.354-.086.141-.099.307-.04.495.044.139.104.268.18.386.074.118.182.259.32.422l-1.171.978Z"/><path class="cls-5" d="m32.2,221.718l-.101.037-6.941.272c-.848.034-1.555-.02-2.125-.159-.569-.141-1.042-.383-1.415-.728-.376-.344-.674-.82-.896-1.426-.194-.528-.287-1.049-.278-1.563l1.566-.009c.001.299.052.59.156.874.087.235.194.433.327.596.132.162.334.293.607.392s.637.154,1.093.165l-.193-.528,5.542-4.835.102-.038.766,2.083-3.077,2.464c-.23.184-.583.436-1.061.755.421-.054.843-.093,1.264-.114l3.904-.304.76,2.067Z"/><path class="cls-5" d="m28.327,229.707c.072-.634.307-1.193.705-1.675.399-.482.912-.868,1.542-1.158.808-.372,1.533-.514,2.177-.427.644.087,1.195.34,1.656.759.461.418.839.949,1.136,1.593.331.719.468,1.393.41,2.021-.057.628-.283,1.182-.677,1.662-.393.479-.923.873-1.591,1.181-.779.358-1.491.5-2.135.424-.644-.076-1.202-.323-1.675-.742-.47-.418-.86-.96-1.164-1.621-.328-.71-.455-1.382-.384-2.017Zm2.883,2.309c.449.047.974-.069,1.575-.346.638-.294,1.071-.628,1.296-1.004.225-.375.232-.795.017-1.261-.233-.504-.563-.795-.993-.874-.429-.08-.968.03-1.615.329-.61.282-1.036.619-1.277,1.012-.241.393-.25.826-.033,1.302.239.513.58.794,1.029.841Z"/><path class="cls-5" d="m40.325,235.011c-.255-.062-.542-.01-.864.157l-.826.429.843,1.622-1.572.57-.744-1.427-4.72,2.453-.972-1.871,4.721-2.454-.476-.915,1.472-.765.476.915.783-.408c.496-.257.993-.391,1.486-.402.496-.011.953.112,1.374.369.418.258.768.654,1.046,1.19.163.314.284.603.363.868s.133.548.162.85l-1.698.298c-.015-.207-.042-.383-.085-.532-.042-.149-.104-.303-.187-.461-.134-.26-.329-.422-.583-.485Z"/><path class="cls-5" d="m50.19,248.937l-8.478,5.402-1.158-1.818,5.271-3.359c-.396.09-.943.166-1.64.226l-3.901.401-.919-1.444,1.995-3.392c.357-.613.658-1.077.898-1.391l-5.272,3.359-1.159-1.818,8.476-5.402,1.228,1.924-2.473,4.318c-.192.333-.397.661-.614.985-.216.323-.414.597-.59.82.481-.132,1.196-.239,2.149-.322l4.977-.385,1.21,1.898Z"/><path class="cls-5" d="m49.371,259.537l-2.685-3.609c-.428.395-.655.805-.683,1.227-.026.423.093.814.361,1.173.199.268.431.498.69.694.262.195.581.372.958.534l-.591,1.335c-.448-.134-.879-.351-1.296-.651-.417-.301-.797-.68-1.138-1.139-.41-.552-.68-1.121-.806-1.708-.127-.588-.07-1.174.169-1.762.24-.587.703-1.136,1.392-1.649.631-.469,1.257-.763,1.877-.881.621-.118,1.208-.054,1.758.193.549.246,1.039.657,1.469,1.234.41.552.652,1.103.725,1.651.074.549-.005,1.059-.235,1.529-.229.47-.582.88-1.054,1.232-.165.124-.469.323-.909.598Zm-.448-4.643c-.307-.04-.676.049-1.106.269l1.427,1.918.038-.028c.381-.285.595-.568.641-.852s-.029-.559-.226-.825c-.209-.282-.468-.442-.775-.482Z"/><path class="cls-5" d="m48.877,262.825c-.003-.848.493-1.684,1.49-2.507.677-.559,1.357-.886,2.037-.981.678-.095,1.301-.012,1.867.251.566.262,1.044.63,1.436,1.104.277.337.493.676.646,1.015.154.34.28.758.383,1.255l-1.534.31c-.087-.363-.179-.653-.277-.87-.099-.216-.22-.414-.368-.591-.313-.379-.71-.563-1.191-.553-.481.011-1.011.257-1.594.737-.55.455-.836.884-.859,1.288-.021.404.121.792.427,1.163.187.226.398.407.633.546.235.138.519.272.855.402l-.561,1.44c-1.024-.33-1.828-.85-2.411-1.555-.651-.788-.976-1.605-.979-2.454Z"/><path class="cls-5" d="m61.781,268.324c-.012.508-.268.992-.77,1.454l-3.779,3.475-1.429-1.553,3.312-3.044c.214-.196.36-.369.438-.52.079-.151.099-.302.058-.452-.04-.15-.144-.319-.314-.505-.31-.334-.751-.594-1.329-.779l-3.812,3.505-1.429-1.552,7.858-7.222,1.576,1.416-3.186,2.929c.822.237,1.52.668,2.092,1.291.489.531.727,1.05.716,1.557Z"/><path class="cls-5" d="m67.178,273.677c.083.58-.158,1.161-.729,1.747l-3.427,3.527-1.289-1.253.257-.509c-.472-.069-.886-.196-1.238-.38-.354-.184-.68-.422-.98-.713-.314-.307-.533-.635-.658-.986-.125-.352-.15-.697-.076-1.036.073-.339.244-.645.511-.92.569-.585,1.296-.749,2.18-.488s1.815.832,2.797,1.712l.119-.122c.202-.208.34-.39.413-.549.074-.159.086-.317.036-.475-.051-.157-.171-.327-.358-.509-.471-.459-1.192-.791-2.16-.996l.301-1.48c.656.132,1.238.322,1.744.57.507.247.988.593,1.444,1.036.659.639,1.029,1.248,1.113,1.826Zm-6.09,1.328c.015.182.118.364.306.548.312.302.751.533,1.315.694l.94-.968c-.581-.508-1.069-.817-1.464-.926s-.689-.063-.883.137c-.158.164-.23.335-.214.516Z"/><path class="cls-5" d="m73.611,279.388c.042.509-.161,1.022-.607,1.537l-3.356,3.866-1.592-1.382,2.949-3.398c.189-.219.314-.407.375-.567.062-.159.065-.31.008-.455s-.18-.3-.371-.466c-.319-.276-.801-.476-1.449-.599l-3.364,3.878-1.593-1.383,4.544-5.237,1.725,1.23-.447.516c.448.074.864.189,1.248.343.384.155.735.371,1.05.644.545.472.839.964.882,1.473Z"/><path class="cls-5" d="m71.302,286.099l4.311-5.431,1.778,1.154-4.437,5.588-1.651-1.312Zm5.366-6.207c-.088-.223-.121-.45-.097-.681s.109-.44.257-.627c.148-.186.334-.319.557-.4.222-.08.452-.102.69-.065.236.036.449.129.638.277.196.156.341.347.433.572.093.226.126.457.099.693-.027.235-.116.446-.263.633-.149.187-.332.318-.552.394-.221.076-.452.094-.692.055s-.459-.137-.655-.293c-.187-.15-.326-.335-.415-.557Z"/><path class="cls-5" d="m75.424,288.576c-.211-.822.066-1.754.831-2.796.519-.709,1.096-1.193,1.733-1.451.634-.259,1.258-.331,1.871-.215.613.115,1.167.356,1.662.719.353.258.645.534.877.825.232.292.456.666.677,1.122l-1.41.678c-.171-.331-.333-.59-.482-.776s-.315-.347-.5-.484c-.397-.29-.827-.372-1.291-.243-.463.128-.918.497-1.365,1.106-.421.575-.595,1.062-.514,1.459.078.397.312.738.698,1.022.236.173.485.297.746.375.263.076.573.136.929.18l-.191,1.533c-1.073-.068-1.98-.374-2.719-.916-.824-.603-1.339-1.316-1.552-2.138Z"/><path class="cls-5" d="m88.563,290.277c.191.553.064,1.171-.384,1.853l-2.7,4.11-1.502-.987.155-.548c-.476.022-.905-.025-1.287-.139-.381-.115-.747-.286-1.095-.516-.367-.24-.645-.522-.836-.844-.189-.322-.277-.657-.268-1.003.008-.347.118-.68.327-1,.449-.683,1.131-.98,2.048-.891.918.088,1.941.474,3.07,1.153l.094-.143c.158-.241.258-.448.301-.618s.024-.327-.056-.472c-.079-.145-.227-.29-.447-.433-.55-.361-1.32-.552-2.309-.57l.017-1.511c.669.006,1.274.084,1.82.23.546.148,1.082.396,1.614.745.766.503,1.244,1.031,1.436,1.583Zm-5.729,2.454c.05.175.184.335.405.481.362.237.837.382,1.422.432l.741-1.128c-.668-.388-1.204-.599-1.613-.632-.408-.034-.689.067-.843.3-.125.19-.163.373-.113.547Z"/><path class="cls-5" d="m87.278,297.322l5.484-9.155,1.912.91-5.585,9.329-1.811-1.084Z"/><path class="cls-5" d="m101.529,305.252l-.78-1.794c-1.409.234-2.734.041-3.973-.577-.588-.293-1.061-.651-1.42-1.073-.361-.422-.575-.879-.644-1.37-.07-.491.023-.99.276-1.5.297-.592.697-1.018,1.207-1.279.507-.261,1.12-.432,1.835-.514-.22-.606-.339-1.107-.35-1.501-.013-.393.072-.775.257-1.145.194-.389.479-.699.858-.933.378-.233.818-.351,1.322-.355.5-.003,1.023.13,1.563.399.533.265.96.58,1.286.944.322.364.524.754.603,1.168.079.414.012.834-.201,1.26-.263.527-.621.901-1.073,1.12-.454.219-1.009.36-1.67.424l1.231,2.712c.472-.272.988-.639,1.544-1.101l1.289,1.476c-.645.522-1.338.944-2.081,1.267l.78,1.725-1.86.649Zm-1.449-3.324l-1.415-3.219c-.385.062-.716.174-.993.336-.277.163-.49.396-.642.702-.097.194-.141.398-.13.612.012.213.093.428.249.644.156.215.4.408.738.576.731.364,1.462.481,2.194.349Zm-.36-5.882c.017.229.094.539.229.93.377-.056.684-.144.926-.267.241-.122.425-.308.549-.557.115-.232.134-.448.057-.649-.079-.2-.234-.359-.467-.475-.258-.129-.492-.15-.703-.065-.209.086-.375.249-.493.49-.084.167-.118.364-.099.592Z"/><path class="cls-5" d="m110.431,306.838l4.37,1.692-.648,1.678-6.383-2.471,3.63-9.374,6.309,2.443-.644,1.664-4.299-1.664-.817,2.111,3.715,1.439-.874,1.558-3.48-1.347-.879,2.271Z"/><path class="cls-5" d="m115.984,310.809l3.405-10.114,2.062.481-3.468,10.306-1.999-.674Z"/><path class="cls-5" d="m126.793,310.969l-4.319-1.259c-.102.574-.036,1.037.197,1.391.233.353.564.592.994.717.321.093.645.138.969.137.326-.002.688-.052,1.086-.152l.334,1.423c-.438.163-.912.25-1.427.263-.512.012-1.045-.063-1.594-.223-.661-.191-1.218-.484-1.673-.875-.456-.391-.766-.894-.929-1.506-.163-.613-.123-1.331.116-2.156.22-.755.541-1.366.965-1.835.425-.469.93-.772,1.518-.907.589-.136,1.227-.103,1.916.098.662.193,1.187.486,1.575.879.391.394.635.848.737,1.361.098.514.066,1.054-.099,1.62-.057.199-.18.54-.364,1.025Zm-3.158-3.433c-.269.153-.51.446-.72.881l2.296.669.014-.044c.133-.457.13-.812-.003-1.068-.134-.254-.361-.428-.677-.52-.336-.098-.641-.071-.909.083Z"/><path class="cls-5" d="m128.409,313.892c-.516-.674-.625-1.64-.327-2.898.202-.855.545-1.526,1.029-2.012.484-.485,1.031-.795,1.641-.928.609-.132,1.213-.127,1.811.015.425.1.802.24,1.129.418.327.177.681.434,1.064.769l-1.036,1.174c-.289-.238-.536-.414-.746-.527-.211-.114-.427-.197-.652-.25-.477-.112-.904-.02-1.282.279-.377.299-.652.816-.826,1.55-.163.694-.132,1.21.095,1.545s.575.557,1.043.669c.285.067.562.085.833.054.271-.032.578-.097.924-.196l.422,1.487c-1.015.356-1.968.427-2.861.216-.994-.236-1.748-.69-2.261-1.364Z"/><path class="cls-5" d="m140.918,309.906l-.705,2.03c-.151-.093-.293-.166-.42-.222-.129-.056-.28-.1-.455-.133-.268-.051-.54-.035-.816.043-.276.08-.569.258-.877.536l-.789,4.176-2.071-.392,1.288-6.812,2.11.194-.183.96c.646-.594,1.349-.818,2.111-.674.298.056.568.155.808.295Z"/><path class="cls-5" d="m140.911,317.046l1.076-6.85,2.115.128-1.108,7.049-2.083-.327Zm1.612-8.045c-.187-.15-.327-.332-.42-.545-.092-.214-.121-.438-.085-.673.037-.234.134-.442.287-.621.155-.18.344-.312.569-.398.225-.085.455-.109.692-.072.247.039.467.134.659.284.192.151.334.335.427.554.092.219.119.446.083.68-.037.235-.133.44-.286.614-.154.175-.347.304-.575.389-.229.084-.468.106-.715.069-.237-.038-.449-.131-.637-.28Z"/><path class="cls-5" d="m145.707,317.156c-.591-.609-.811-1.556-.662-2.84.1-.873.362-1.579.786-2.119.425-.539.931-.91,1.521-1.113.59-.202,1.189-.268,1.8-.198.435.051.825.144,1.171.284.346.138.727.352,1.144.639l-.891,1.287c-.313-.202-.581-.348-.802-.436-.222-.088-.447-.145-.674-.172-.49-.056-.903.086-1.242.427-.34.341-.553.886-.64,1.636-.081.709.01,1.216.276,1.522.264.307.635.488,1.113.542.292.034.569.019.834-.044s.564-.164.895-.303l.595,1.427c-.967.471-1.905.654-2.816.549-1.015-.116-1.815-.48-2.407-1.089Z"/><path class="cls-5" d="m157.97,312.137c.44.385.634.986.581,1.8l-.314,4.908-1.795-.115-.135-.552c-.404.254-.798.426-1.187.515-.388.088-.791.12-1.208.093-.438-.027-.818-.135-1.14-.321-.325-.186-.568-.432-.731-.738-.165-.306-.235-.649-.209-1.032.052-.815.498-1.41,1.339-1.787s1.919-.548,3.238-.516l.012-.17c.019-.289.003-.518-.043-.687-.048-.169-.141-.297-.283-.383-.14-.087-.342-.139-.602-.155-.658-.042-1.421.173-2.289.646l-.733-1.322c.585-.325,1.151-.558,1.697-.7.546-.141,1.137-.191,1.771-.151.914.059,1.591.281,2.032.667Zm-3.767,4.966c.129.127.326.2.589.216.433.027.917-.081,1.45-.328l.086-1.346c-.773-.008-1.343.074-1.713.247-.372.173-.567.4-.583.678-.017.227.041.404.171.532Z"/><path class="cls-5" d="m160.325,318.894l.243-10.669,2.112-.154-.247,10.871-2.109-.049Z"/><path class="cls-5" d="m170.527,317.048l4.682-.219.084,1.798-6.836.318-.467-10.041,6.758-.314.083,1.782-4.604.215.105,2.262,3.979-.186-.17,1.778-3.728.174.114,2.433Z"/><path class="cls-5" d="m182.658,311.171c.4.315.639.812.711,1.491l.547,5.09-2.097.226-.479-4.473c-.031-.287-.085-.507-.161-.661-.074-.154-.183-.258-.328-.317-.142-.057-.342-.072-.592-.045-.42.045-.895.263-1.427.653l.549,5.105-2.098.225-.74-6.894,2.077-.425.071.678c.358-.278.726-.504,1.102-.68.375-.176.772-.286,1.186-.331.718-.077,1.277.042,1.679.358Z"/><path class="cls-5" d="m191.615,315.356c.439.063.796.21,1.073.441.276.232.453.571.527,1.02.086.51-.001.981-.262,1.413-.26.431-.674.8-1.239,1.104-.568.305-1.257.525-2.068.662-1.047.176-1.936.16-2.67-.047-.732-.207-1.153-.642-1.264-1.306-.063-.377-.02-.712.132-1.005.151-.292.377-.558.675-.797-.317-.177-.5-.429-.555-.756-.034-.203-.003-.413.092-.628s.276-.45.539-.704c-.456-.144-.819-.374-1.089-.69-.269-.317-.441-.695-.516-1.133-.098-.581-.019-1.087.237-1.518.254-.431.628-.78,1.122-1.046.495-.267,1.054-.452,1.68-.558.36-.06.662-.084.908-.074l2.262-1.434.87,1.506-1.392.58c.59.31.943.801,1.056,1.474.094.561.012,1.044-.248,1.449-.26.406-.632.733-1.117.982-.488.25-1.033.426-1.639.527-.278.046-.542.075-.794.086-.047.113-.062.204-.05.275.015.082.055.144.119.184.064.042.175.068.329.079.156.01.374.002.654-.024l1.032-.079c.625-.052,1.157-.047,1.594.015Zm-4.547-2.791c.058.347.213.581.464.701.251.12.596.143,1.037.069.439-.073.74-.211.907-.411.165-.2.219-.464.164-.791-.056-.337-.208-.576-.459-.717-.249-.141-.584-.177-1.002-.106-.858.144-1.228.563-1.111,1.256Zm3.598,5.562c.263-.182.375-.389.336-.623-.026-.143-.086-.248-.185-.316-.1-.067-.256-.108-.47-.125-.214-.016-.516-.013-.903.01l-.887.07c-.151.016-.374.016-.663.002-.067.158-.114.313-.141.464-.026.151-.03.283-.01.395.044.265.193.444.447.538.253.093.685.089,1.296-.014.523-.087.916-.222,1.18-.401Z"/><path class="cls-5" d="m193.148,307.847c-.229-.073-.425-.192-.588-.358-.163-.166-.269-.366-.318-.598-.051-.233-.034-.461.044-.684.081-.223.211-.414.391-.574.178-.159.385-.265.618-.314.246-.052.484-.042.718.03s.432.193.598.364c.163.172.27.374.319.606.05.233.034.457-.048.676-.081.218-.214.407-.399.568-.183.161-.398.268-.642.319-.234.05-.464.04-.694-.034Zm1.37,8.09l-1.443-6.782,2.02-.637,1.486,6.979-2.063.439Z"/><path class="cls-5" d="m202.973,307.042c.445.253.752.71.923,1.371l1.285,4.954-2.04.531-1.131-4.355c-.072-.28-.156-.49-.253-.631s-.221-.229-.371-.264c-.152-.036-.35-.022-.595.041-.408.106-.847.392-1.315.854l1.289,4.97-2.041.53-1.741-6.711,1.99-.725.172.66c.313-.326.644-.605.99-.833.344-.229.719-.395,1.124-.501.699-.18,1.27-.144,1.713.109Z"/><path class="cls-5" d="m212.202,307.97l-4.284,1.376c.237.532.552.88.941,1.042.392.162.801.175,1.227.037.318-.101.611-.244.881-.429.269-.184.539-.428.813-.734l1.073.991c-.271.381-.616.72-1.035,1.017-.419.298-.901.534-1.447.709-.655.211-1.28.281-1.876.212-.597-.069-1.133-.311-1.613-.727-.478-.418-.848-1.034-1.11-1.851-.241-.749-.318-1.435-.228-2.062.088-.626.34-1.16.749-1.601.411-.441.958-.772,1.642-.992.654-.209,1.253-.261,1.798-.154.542.108.999.347,1.37.717.37.369.645.834.826,1.396.063.197.154.549.271,1.054Zm-4.539-1.076c-.138.278-.172.655-.102,1.133l2.276-.731-.015-.044c-.144-.453-.344-.747-.598-.883-.255-.136-.539-.153-.854-.052-.333.108-.57.3-.706.577Z"/><path class="cls-5" d="m219.59,305.185l-4.205,1.606c.265.518.598.848.997.989.4.14.809.131,1.228-.029.311-.119.595-.278.853-.477.261-.198.518-.458.775-.777l1.124.932c-.251.395-.577.752-.979,1.072s-.87.582-1.406.786c-.642.246-1.262.35-1.862.312-.599-.037-1.15-.25-1.649-.64-.5-.39-.904-.986-1.209-1.788-.28-.734-.393-1.416-.34-2.046.056-.63.276-1.177.661-1.64.388-.462.917-.822,1.586-1.079.642-.246,1.239-.328,1.788-.25s1.017.292,1.407.641.69.799.9,1.349c.076.194.184.54.331,1.037Zm-4.592-.829c-.122.285-.135.664-.04,1.136l2.232-.853-.016-.044c-.171-.444-.386-.727-.647-.848s-.546-.124-.854-.005c-.328.125-.553.329-.675.614Z"/><path class="cls-5" d="m223.994,298.865l.564,2.073c-.179.01-.336.028-.474.055-.137.026-.286.074-.449.145-.25.109-.467.275-.649.497-.183.221-.324.534-.421.937l1.706,3.893-1.933.846-2.781-6.351,1.85-1.031.392.896c.198-.854.652-1.437,1.362-1.749.278-.121.556-.192.833-.212Z"/><path class="cls-5" d="m224.826,297.205c-.24-.017-.46-.088-.656-.21-.198-.122-.348-.292-.452-.506-.102-.214-.142-.439-.116-.676.024-.236.106-.452.242-.65.136-.197.312-.347.528-.452.225-.108.46-.155.705-.14.242.015.466.086.665.214.2.128.353.298.454.513.104.215.142.438.114.669s-.113.446-.254.646c-.141.2-.324.354-.548.463-.215.104-.443.147-.682.13Zm3.241,7.538l-3.005-6.25,1.813-1.095,3.091,6.43-1.899.914Z"/><path class="cls-5" d="m234.16,294.119c.491.142.897.514,1.22,1.115l2.414,4.513-1.857.995-2.123-3.966c-.137-.255-.27-.439-.396-.554-.127-.113-.268-.17-.424-.169-.155.001-.344.061-.567.18-.372.199-.732.579-1.079,1.139l2.424,4.526-1.861.996-3.271-6.113,1.764-1.173.324.602c.228-.392.483-.74.766-1.043.283-.303.606-.554.976-.751.635-.34,1.199-.439,1.69-.297Z"/><path class="cls-5" d="m244.004,294.667c.429-.105.816-.103,1.158.009.343.111.634.361.872.749.27.441.365.911.285,1.408s-.326.993-.737,1.488c-.412.495-.971.957-1.67,1.387-.907.555-1.737.873-2.494.954-.758.081-1.312-.165-1.662-.738-.199-.327-.284-.653-.254-.982.031-.328.142-.659.328-.992-.358-.047-.624-.211-.797-.493-.108-.177-.158-.383-.149-.618.008-.236.087-.52.236-.855-.477.038-.901-.039-1.268-.232-.369-.193-.668-.478-.901-.858-.307-.502-.424-1.001-.349-1.496.076-.494.293-.958.652-1.39.358-.432.808-.814,1.35-1.146.312-.19.582-.325.815-.407l1.561-2.176,1.371,1.071-1.074,1.058c.663.066,1.173.391,1.53.973.298.485.4.964.311,1.437-.087.473-.311.916-.669,1.33-.357.413-.8.78-1.322,1.1-.241.147-.475.273-.705.376.001.12.021.212.059.274.042.07.102.113.178.127.074.014.186-.003.334-.051.149-.048.348-.136.599-.265l.928-.459c.559-.282,1.053-.477,1.485-.582Zm-5.263-.889c.184.3.414.459.692.477.278.017.607-.09.988-.323.378-.233.609-.473.685-.721.079-.248.033-.513-.14-.795-.179-.292-.41-.456-.695-.494-.284-.038-.607.054-.969.275-.742.454-.929.981-.562,1.581Zm5.416,3.814c.177-.267.204-.501.079-.703-.076-.123-.171-.198-.289-.223-.116-.025-.278-.005-.482.059-.205.065-.484.18-.836.347l-.794.396c-.136.072-.342.155-.618.251-.003.171.013.332.044.482.033.15.078.273.138.37.14.23.346.34.614.333.27-.007.669-.173,1.199-.498.453-.276.765-.548.943-.813Z"/><path class="cls-5" d="m247.86,289.564l-1.059-1.474,3.755-2.698,1.06,1.473-3.757,2.699Z"/><path class="cls-5" d="m258.062,274.361c1.231-.048,2.438.625,3.625,2.019.723.851,1.133,1.73,1.235,2.635.1.906-.056,1.771-.469,2.597-.412.826-1.007,1.569-1.785,2.23l-2.511,2.135-6.51-7.658,2.572-2.186c1.333-1.133,2.614-1.724,3.844-1.773Zm2.521,6.735c.294-.475.398-.973.311-1.497-.087-.523-.404-1.103-.944-1.742-.505-.591-.995-.98-1.476-1.168-.482-.188-.971-.204-1.465-.048-.496.157-1.021.47-1.576.942l-.919.781,4.06,4.774.546-.464c.68-.578,1.166-1.104,1.463-1.579Z"/><path class="cls-5" d="m265.481,270.413c.582-.065,1.157.196,1.724.784l3.416,3.537-1.293,1.249-.499-.273c-.085.47-.226.879-.42,1.225-.196.346-.442.666-.745.955-.315.305-.652.514-1.007.627-.355.114-.702.128-1.037.043-.337-.085-.638-.265-.903-.541-.568-.587-.709-1.319-.419-2.194.289-.875.888-1.788,1.799-2.74l-.12-.123c-.199-.208-.378-.351-.534-.431-.157-.079-.314-.096-.474-.05-.161.047-.333.16-.52.341-.475.458-.829,1.167-1.065,2.128l-1.47-.349c.154-.651.361-1.226.626-1.725.263-.499.624-.969,1.08-1.41.66-.637,1.28-.987,1.861-1.053Zm1.133,6.13c.182-.01.368-.106.557-.29.312-.301.557-.733.734-1.293l-.937-.971c-.525.566-.85,1.044-.973,1.435-.121.39-.085.687.108.887.159.164.328.24.51.231Z"/><path class="cls-5" d="m274.068,261.163c.498-.022.999.192,1.499.642l3.814,3.435-1.41,1.567-3.343-3.01c-.306-.276-.564-.427-.773-.45-.208-.024-.407.07-.598.282-.255.283-.448.721-.578,1.314l.035.031,3.816,3.436-1.412,1.568-3.343-3.01c-.307-.277-.563-.427-.773-.452-.207-.024-.405.069-.595.279-.273.304-.468.744-.583,1.319l3.851,3.466-1.412,1.568-5.153-4.639,1.263-1.703.449.404c.142-.838.471-1.543.988-2.116.53-.588,1.102-.837,1.715-.747.095-.477.234-.915.413-1.316.179-.4.42-.767.72-1.102.441-.489.91-.745,1.41-.766Z"/><path class="cls-5" d="m278.732,255.214c.567-.145,1.173.033,1.817.536l3.874,3.028-1.107,1.416-.533-.2c-.019.477-.099.9-.246,1.271-.144.371-.346.721-.603,1.05-.27.346-.573.6-.91.761-.336.162-.676.224-1.021.187-.347-.037-.669-.175-.971-.41-.644-.503-.884-1.207-.722-2.115.164-.907.632-1.895,1.402-2.964l-.134-.106c-.228-.177-.426-.295-.591-.351-.166-.057-.325-.051-.476.016-.151.068-.308.205-.469.41-.405.52-.658,1.271-.756,2.254l-1.505-.14c.062-.666.186-1.264.378-1.795.192-.531.484-1.047.875-1.548.564-.722,1.13-1.156,1.696-1.302Zm1.976,5.912c.179-.035.35-.157.511-.365.268-.342.45-.802.549-1.382l-1.065-.83c-.442.633-.695,1.152-.761,1.556-.066.403.01.692.229.864.18.14.358.193.536.158Z"/><path class="cls-5" d="m286.075,256.456c-.434.339-.914.603-1.438.794l-.59-1.507c.45-.156.838-.363,1.165-.619.325-.257.594-.534.803-.834.2-.282.301-.52.312-.711.008-.193-.061-.339-.204-.44-.093-.065-.194-.097-.303-.097s-.253.056-.435.164c-.184.107-.426.286-.727.534l-.362.3c-.603.498-1.135.786-1.594.865-.46.08-.922-.045-1.388-.372-.355-.249-.598-.568-.732-.954-.133-.386-.148-.811-.044-1.273s.317-.922.64-1.383c.611-.87,1.373-1.512,2.284-1.928l.631,1.449c-.426.23-.76.441-.997.635-.236.195-.453.429-.646.706-.152.215-.228.404-.228.566.001.162.061.284.179.368.084.059.169.087.254.082.086-.005.192-.048.32-.133.129-.083.315-.227.559-.429l.414-.346c.637-.545,1.214-.864,1.734-.956s1.012.026,1.477.352c.364.255.625.577.784.961.158.386.187.826.085,1.322-.1.495-.342,1.015-.725,1.561-.384.545-.793.987-1.227,1.324Z"/><path class="cls-5" d="m289.548,250.398c-.806.267-1.754.054-2.847-.638-.741-.47-1.265-1.014-1.565-1.63-.301-.616-.413-1.234-.34-1.853.073-.619.275-1.188.604-1.707.234-.37.489-.68.763-.931.276-.251.634-.502,1.074-.752l.772,1.361c-.319.194-.566.372-.741.533-.176.161-.325.339-.448.533-.263.415-.314.85-.156,1.304.159.453.559.882,1.194,1.287.604.382,1.101.52,1.492.415.391-.105.715-.361.972-.767.157-.247.265-.503.324-.77.059-.266.099-.578.116-.938l1.544.087c.005,1.075-.24,1.999-.731,2.774-.547.862-1.222,1.427-2.027,1.693Z"/><path class="cls-5" d="m290.602,235.801l6.22,3.492-.879,1.568-.571-.125c.057.955-.121,1.802-.535,2.54-.343.61-.775.989-1.294,1.134-.521.145-1.075.054-1.661-.276l-4.356-2.445.858-1.938,3.989,2.24c.362.203.654.289.879.257.226-.031.425-.203.6-.516.187-.331.287-.837.301-1.519l-4.408-2.475.857-1.938Z"/><path class="cls-5" d="m298.135,236.671c-.377.4-.811.735-1.301,1.004l-.815-1.399c.422-.223.775-.486,1.057-.79.283-.303.504-.62.667-.947.152-.31.218-.559.197-.751-.021-.191-.111-.325-.268-.403-.102-.05-.207-.066-.312-.049-.107.017-.242.093-.407.228s-.376.347-.637.639l-.311.353c-.52.584-1,.95-1.443,1.099-.442.15-.918.098-1.429-.154-.389-.192-.68-.468-.87-.83-.19-.361-.269-.779-.239-1.251s.172-.961.42-1.464c.47-.954,1.124-1.705,1.961-2.257l.846,1.335c-.386.292-.682.553-.887.78-.205.229-.382.494-.531.797-.118.236-.163.435-.138.594.026.159.102.271.232.335.093.046.182.06.267.043.083-.019.182-.079.294-.181.115-.102.277-.272.485-.51l.357-.407c.545-.636,1.066-1.039,1.566-1.21.498-.171,1.004-.13,1.514.122.399.196.705.473.923.829.215.357.312.788.287,1.292-.026.506-.185,1.057-.479,1.655-.294.598-.631,1.097-1.007,1.498Z"/><path class="cls-5" d="m302.854,225.635c-.589.474-1.241.73-1.949.771-.711.042-1.451-.089-2.222-.39l-5.546-2.171.786-2.007,5.301,2.074c.809.317,1.501.398,2.078.244.576-.154,1.024-.639,1.343-1.456.306-.777.297-1.413-.027-1.907-.324-.495-.84-.881-1.554-1.16l-5.445-2.131.786-2.008,5.502,2.154c.954.373,1.661.862,2.118,1.466.457.604.698,1.277.725,2.02.026.743-.126,1.532-.452,2.366-.371.95-.853,1.662-1.444,2.136Z"/><path class="cls-5" d="m301.968,209.134c.449-.241,1-.259,1.65-.053l4.881,1.544-.637,2.011-4.287-1.356c-.278-.087-.5-.128-.67-.12-.171.007-.311.065-.421.173-.111.109-.204.285-.279.526-.129.403-.119.925.024,1.568l4.895,1.548-.635,2.01-6.612-2.091.445-2.071.652.206c-.111-.44-.171-.868-.182-1.282-.009-.414.049-.821.175-1.219.216-.688.552-1.153,1.003-1.394Z"/><path class="cls-5" d="m301.214,206.136c-.169.17-.364.29-.587.36s-.448.073-.678.012c-.228-.063-.426-.18-.588-.353-.163-.173-.273-.375-.334-.607s-.059-.464.002-.695c.066-.241.183-.449.354-.625.17-.175.369-.297.596-.365.228-.068.456-.072.685-.009.23.062.424.179.582.35.156.172.264.376.322.613.059.237.057.477-.008.718-.062.232-.178.432-.347.602Zm7.825,2.466l-6.694-1.805.355-2.09,6.889,1.858-.55,2.037Z"/><path class="cls-5" d="m304.776,196.613l.106.024,6.124,4.055-.475,2.087-7.293,1.078-.106-.023.5-2.194,3.88-.35c.497-.037.919-.052,1.268-.048-.076-.039-.228-.111-.46-.216-.23-.106-.455-.216-.673-.33l-3.392-1.799.52-2.284Z"/><path class="cls-5" d="m309.844,190.522l-.78,4.432c.581.038,1.035-.077,1.36-.348.326-.271.527-.626.606-1.067.057-.328.066-.655.03-.978-.037-.324-.128-.678-.271-1.063l1.378-.487c.209.418.349.881.417,1.39.067.509.052,1.046-.047,1.609-.119.677-.349,1.263-.688,1.759-.339.495-.805.858-1.397,1.087-.592.23-1.309.27-2.154.121-.775-.137-1.417-.39-1.931-.76-.512-.371-.867-.84-1.067-1.409-.199-.569-.236-1.208-.112-1.916.12-.677.354-1.23.702-1.661.349-.431.774-.723,1.273-.879.5-.155,1.039-.182,1.62-.08.205.035.557.119,1.059.25Zm-3.067,3.516c.18.25.499.457.953.618l.414-2.354-.045-.008c-.469-.083-.822-.043-1.06.119-.24.161-.388.404-.443.73-.062.346-.002.644.182.895Z"/><path class="cls-5" d="m306.679,183.504l2.069.573c-.083.159-.147.304-.193.435-.049.132-.083.285-.106.462-.033.27-.001.541.097.812.094.271.292.551.59.841l4.217.524-.26,2.092-6.88-.854.059-2.118.969.12c-.632-.606-.901-1.294-.806-2.063.038-.301.118-.576.243-.825Z"/><path class="cls-5" d="m313.883,182.325c-.204.511-.484.981-.843,1.41l-1.27-1.004c.311-.363.543-.735.695-1.121s.243-.762.275-1.127c.028-.343-.001-.6-.09-.77-.088-.17-.222-.262-.398-.278-.114-.009-.216.014-.308.069-.093.055-.192.176-.296.361-.104.186-.223.461-.358.827l-.162.443c-.27.733-.583,1.249-.94,1.549-.358.3-.82.427-1.387.379-.434-.037-.804-.188-1.114-.455-.31-.267-.535-.626-.678-1.077-.143-.45-.192-.957-.144-1.518.091-1.058.425-1.997,1.001-2.816l1.275.934c-.253.413-.433.763-.54,1.05-.107.288-.176.6-.205.936-.021.264.008.464.09.603.081.14.194.215.339.228.104.008.19-.01.262-.057s.142-.138.209-.276c.07-.137.158-.354.267-.652l.183-.509c.275-.791.613-1.358,1.016-1.699s.888-.488,1.454-.44c.443.038.832.183,1.163.436.332.253.577.619.74,1.097.162.479.214,1.051.157,1.714-.056.665-.186,1.252-.391,1.763Z"/><path class="cls-5" d="m306.206,175.222c-.128.202-.293.361-.495.477-.202.115-.422.168-.661.156-.236-.011-.453-.084-.649-.218-.196-.134-.347-.308-.457-.522-.108-.214-.156-.44-.145-.68.012-.249.083-.478.211-.686.129-.207.298-.369.505-.484s.431-.168.667-.155c.239.011.452.083.642.217.191.135.34.311.448.531.109.218.157.453.145.702-.01.239-.081.461-.211.663Zm8.174.733l-6.928-.329-.1-2.117,7.126.339-.098,2.107Z"/><path class="cls-5" d="m314.328,167.045c.334.617.495,1.305.484,2.062-.005.384-.086.738-.24,1.063-.155.325-.399.589-.732.791-.335.203-.755.301-1.262.293l-3.334-.047-.019,1.281-1.66-.023.017-1.281-1.565-.022-.265-2.113,1.861.026.028-1.953,1.657.242-.026,1.734,3.009.042c.31.004.527-.047.654-.155.126-.108.189-.26.193-.459.001-.145-.015-.286-.049-.422-.035-.136-.092-.303-.172-.502l1.419-.559Z"/><path class="cls-5" d="m307.432,159.455l.108-.003,6.673,1.931c.813.236,1.469.509,1.966.821.496.313.867.692,1.114,1.137.248.447.381.992.401,1.637.017.562-.059,1.086-.23,1.57l-1.488-.484c.094-.285.136-.578.127-.88-.009-.25-.049-.472-.122-.668s-.223-.383-.453-.564c-.228-.18-.556-.347-.986-.5l.019.563-6.786,2.839-.108.004-.07-2.218,3.696-1.367c.277-.102.692-.229,1.245-.383-.415-.081-.829-.177-1.235-.289l-3.802-.944-.069-2.201Z"/><path d="m260.999,102.644c-.603,1.338-.96,2.414-1.534,3.357-3.962,6.501-7.932,12.998-11.996,19.435-.77,1.219-.827,2.21-.32,3.499,1.075,2.73,2.057,5.501,2.968,8.291.441,1.351,1.206,1.997,2.607,2.321,5.973,1.384,11.919,2.885,17.872,4.354,3.462.854,4.072,1.641,4.166,5.277.329,12.683.666,25.366.982,38.049.073,2.946-.422,3.574-3.392,4.157-7.324,1.436-14.653,2.856-21.994,4.202-1.363.25-2.084.807-2.42,2.172-.796,3.236-1.802,6.423-2.542,9.67-.21.923-.08,2.142.371,2.963,3.435,6.265,6.985,12.468,10.507,18.686,2.212,3.906,1.996,5.571-1.182,8.591-7.553,7.177-15.109,14.351-22.67,21.519-2.764,2.62-4.213,2.811-7.453.794-6.405-3.987-12.795-7.998-19.139-12.081-1.429-.919-2.613-1.181-4.22-.359-2.669,1.365-5.519,2.376-8.196,3.728-.807.408-1.613,1.353-1.876,2.218-2.228,7.336-4.328,14.71-6.47,22.072-1.03,3.539-2.228,4.413-5.907,4.252-10.806-.471-21.611-.946-32.416-1.438-3.168-.144-4.446-1.191-5.154-4.256-1.726-7.468-3.455-14.936-5.089-22.424-.335-1.533-.971-2.428-2.516-2.913-2.414-.759-4.785-1.682-7.11-2.684-1.254-.54-2.216-.366-3.352.304-6.671,3.931-13.373,7.809-20.084,11.673-2.352,1.354-4.069,1.154-5.951-.774-7.929-8.127-15.834-16.277-23.72-24.446-1.656-1.715-1.689-4.101-.167-6.448,4.18-6.443,8.35-12.892,12.614-19.278.833-1.248.96-2.35.58-3.739-.809-2.955-1.411-5.967-2.266-8.907-.188-.647-.999-1.426-1.654-1.577-7.467-1.722-14.959-3.34-22.446-4.973-2.62-.572-3.288-1.293-3.17-3.948.337-7.602.73-15.201,1.118-22.8.279-5.466.586-10.93.879-16.395.129-2.402.976-3.482,3.366-4.021,6.306-1.421,12.612-2.846,18.942-4.149,1.458-.3,2.097-.984,2.558-2.338.9-2.648,1.963-5.246,3.079-7.813.58-1.333.58-2.422-.146-3.749-3.398-6.209-6.685-12.479-10-18.733-.341-.644-.63-1.319-.903-1.996-1.319-3.268-1.111-4.325,1.393-6.721,6.514-6.231,13.042-12.447,19.563-18.671,1.255-1.198,2.482-2.428,3.755-3.607,2.496-2.31,4.119-2.461,6.972-.657,6.434,4.068,12.839,8.183,19.318,12.178.772.476,2.019.644,2.895.405,2.698-.735,5.359-1.648,7.955-2.69.764-.307,1.612-1.172,1.832-1.948,2.093-7.378,4.049-14.794,6.067-22.194,1.072-3.93,2.126-4.686,6.221-4.709,10.488-.059,20.976-.149,31.464-.203,3.969-.02,5.026.854,5.986,4.692,1.846,7.379,3.734,14.748,5.542,22.136.298,1.217.859,1.955,2.012,2.472,2.618,1.174,5.218,2.406,7.742,3.768,1.575.85,2.843.801,4.41-.132,6.482-3.858,13.045-7.579,19.579-11.351,3.153-1.82,4.677-1.606,7.256,1.027,7.572,7.73,15.169,15.436,22.683,23.222.956.991,1.473,2.406,2.2,3.636Zm-1.542-.148c-.886-1.154-1.679-2.427-2.701-3.477-7.22-7.423-14.491-14.796-21.737-22.194-2.12-2.165-2.723-2.276-5.376-.751-7.008,4.027-14.022,8.043-21,12.122-1.047.612-1.868.655-2.947.104-3.211-1.641-6.448-3.238-9.74-4.706-1.317-.587-1.886-1.438-2.213-2.783-1.845-7.587-3.76-15.158-5.675-22.728-.748-2.956-1.382-3.438-4.462-3.423-10.689.053-21.378.123-32.067.194-2.599.017-3.34.61-4.048,3.215-2.117,7.794-4.192,15.6-6.396,23.37-.22.777-1.083,1.647-1.853,1.946-3.048,1.182-6.196,2.105-9.268,3.228-1.195.437-2.101.261-3.154-.417-6.459-4.159-12.959-8.253-19.448-12.365-2.79-1.768-3.394-1.705-5.724.524-2.317,2.217-4.643,4.423-6.959,6.639-5.454,5.218-10.887,10.458-16.368,15.648-1.464,1.386-1.89,2.798-.834,4.623.666,1.15,1.11,2.425,1.733,3.602,3.186,6.021,6.439,12.007,9.552,18.066.418.813.478,2.068.182,2.941-1.091,3.219-2.471,6.34-3.6,9.547-.522,1.484-1.334,2.218-2.906,2.539-6.084,1.243-12.138,2.63-18.204,3.959-3.292.721-3.454.934-3.625,4.4-.617,12.475-1.217,24.952-1.906,37.424-.093,1.689.432,2.373,2.072,2.721,7.641,1.62,15.248,3.399,22.893,5,1.426.299,1.981.898,2.278,2.266.751,3.455,1.764,6.853,2.473,10.315.198.968.007,2.268-.516,3.091-4.262,6.709-8.65,13.339-12.99,19.998-1.311,2.012-1.208,3.461.463,5.193,7.514,7.788,15.037,15.567,22.582,23.326,2.105,2.165,2.813,2.231,5.398.732,6.645-3.852,13.297-7.692,19.909-11.6,1.193-.705,2.2-.909,3.533-.346,2.889,1.22,5.837,2.308,8.797,3.348,1.208.424,1.779,1.094,2.062,2.365,1.752,7.886,3.589,15.752,5.414,23.622.55,2.372,1.381,3.08,3.674,3.177,10.811.458,21.621.912,32.433,1.357,3.025.124,3.567-.269,4.415-3.18,2.204-7.562,4.35-15.142,6.646-22.677.281-.923,1.175-1.925,2.049-2.354,3.233-1.589,6.605-2.896,9.865-4.433,1.235-.582,2.152-.487,3.292.242,6.867,4.388,13.792,8.685,20.674,13.051,1.608,1.02,3.036,1.188,4.518-.218,8.141-7.724,16.304-15.425,24.455-23.138,1.151-1.089,1.447-2.354.723-3.81-.444-.893-.827-1.819-1.315-2.687-3.466-6.174-6.977-12.323-10.395-18.523-.401-.728-.621-1.788-.429-2.572.955-3.889,2.134-7.722,3.107-11.606.324-1.292.905-1.849,2.227-2.092,7.618-1.399,15.211-2.933,22.828-4.334,1.736-.319,2.466-.944,2.408-2.877-.385-12.752-.658-25.507-.919-38.262-.039-1.885-.733-2.914-2.655-3.364-6.436-1.505-12.833-3.178-19.265-4.704-1.255-.298-1.929-.859-2.337-2.094-1.128-3.421-2.339-6.817-3.625-10.182-.448-1.173-.39-2.073.287-3.154,4.119-6.564,8.175-13.166,12.225-19.773.511-.834.861-1.767,1.487-3.073Z"/><path class="cls-7" d="m166.497,244.096c42.29.16,76.96-35.39,76.32-78.6-.62-41.57-35.14-76.47-77.38-75.94-40.63.52-75.85,35.28-75.11,78.59.7,41.27,34.37,75.98,76.17,75.95Zm79.26-118.75c-.67,1.08-.73,1.98-.28,3.15,1.28,3.37,2.49,6.77,3.62,10.19.41,1.23,1.08,1.79,2.34,2.09,6.43,1.53,12.83,3.2,19.26,4.7,1.93.45,2.62,1.48,2.66,3.37.26,12.75.53,25.51.92,38.26.06,1.93-.67,2.56-2.41,2.88-7.62,1.4-15.21,2.93-22.83,4.33-1.32.24-1.9.8-2.22,2.09-.98,3.89-2.16,7.72-3.11,11.61-.19.78.03,1.84.43,2.57,3.42,6.2,6.93,12.35,10.39,18.52.49.87.87,1.8,1.32,2.69.72,1.46.42,2.72-.73,3.81-8.15,7.71-16.31,15.41-24.45,23.14-1.48,1.41-2.91,1.24-4.52.22-6.88-4.37-13.81-8.67-20.67-13.05-1.14-.73-2.06-.83-3.3-.25-3.26,1.54-6.63,2.85-9.86,4.44-.87.43-1.77,1.43-2.05,2.35-2.3,7.54-4.44,15.12-6.65,22.68-.84,2.91-1.39,3.3-4.41,3.18-10.81-.45-21.62-.9-32.43-1.36-2.3-.1-3.13-.8-3.68-3.18-1.82-7.86-3.66-15.73-5.41-23.62-.28-1.27-.86-1.94-2.06-2.36-2.96-1.04-5.91-2.13-8.8-3.35-1.33-.56-2.34-.36-3.53.35-6.62,3.9-13.27,7.74-19.91,11.6-2.59,1.49-3.29,1.43-5.4-.74-7.54-7.76-15.07-15.53-22.58-23.32-1.67-1.73-1.78-3.18-.47-5.2,4.34-6.66,8.73-13.28,12.99-19.99.53-.83.72-2.13.52-3.09-.71-3.47-1.72-6.87-2.47-10.32-.3-1.37-.85-1.97-2.28-2.27-7.65-1.6-15.25-3.38-22.89-5-1.65-.34-2.17-1.03-2.08-2.72.69-12.47,1.29-24.95,1.91-37.42.17-3.47.33-3.68,3.62-4.4,6.07-1.33,12.12-2.72,18.21-3.96,1.57-.32,2.38-1.06,2.9-2.54,1.13-3.21,2.51-6.33,3.6-9.55.3-.87.24-2.13-.18-2.94-3.11-6.06-6.36-12.04-9.55-18.06-.62-1.18-1.07-2.46-1.73-3.61-1.06-1.82-.63-3.23.83-4.62,5.48-5.19,10.92-10.43,16.37-15.65,2.32-2.21,4.64-4.42,6.96-6.64,2.33-2.22,2.93-2.29,5.72-.52,6.49,4.11,12.99,8.21,19.45,12.36,1.05.68,1.96.86,3.16.42,3.07-1.12,6.22-2.04,9.26-3.23.77-.29,1.64-1.16,1.86-1.94,2.2-7.77,4.27-15.58,6.39-23.37.71-2.61,1.45-3.2,4.05-3.22,10.69-.07,21.38-.14,32.07-.19,3.08-.02,3.71.47,4.46,3.42,1.91,7.57,3.83,15.14,5.67,22.73.33,1.35.9,2.2,2.22,2.78,3.29,1.47,6.53,3.07,9.74,4.71,1.08.55,1.9.51,2.94-.1,6.98-4.08,14-8.1,21-12.13,2.66-1.52,3.26-1.41,5.38.75,7.24,7.4,14.52,14.78,21.74,22.2,1.02,1.05,1.81,2.32,2.7,3.48-.63,1.3-.98,2.23-1.49,3.07-4.05,6.6-8.11,13.21-12.23,19.77Z"/><path d="m166.43,243.77c-41.801.034-75.469-34.68-76.174-75.948-.741-43.31,34.484-78.07,75.113-78.587,42.241-.537,76.756,34.368,77.377,75.94.645,43.209-34.03,78.76-76.316,78.595Zm74.703-77.029c.155-42.371-34.287-75.487-73.702-75.913-41.509-.448-75.351,33.856-75.608,75.024-.266,42.571,34.171,76.258,74.543,76.337,40.978.08,74.755-34.051,74.767-75.447Z"/><path d="m232.369,166.664c-.293,38.238-31.14,67.334-67.446,66.584-32.505-.672-64.308-26.94-64.293-66.847.014-38.867,30.984-66.679,65.854-66.663,34.869.016,65.617,27.903,65.885,66.925Zm-65.865,64.986c35.314-.889,64.779-28.454,64.053-66.362-.694-36.241-28.191-63.686-64.064-63.762-35.598-.075-64.702,27.642-64.144,66.257.529,36.56,29.345,62.998,64.155,63.866Z"/><path class="cls-7" d="m241.157,166.736c-.01,41.39-33.79,75.53-74.77,75.45-40.37-.08-74.81-33.77-74.54-76.34.26-41.17,34.1-75.47,75.61-75.02,39.41.42,73.85,33.54,73.7,75.91Zm-8.73-.05c-.27-39.02-31.02-66.91-65.89-66.93-34.87-.01-65.84,27.8-65.85,66.67-.02,39.9,31.79,66.17,64.29,66.84,36.31.75,67.15-28.34,67.45-66.58Z"/><path class="cls-3" d="m230.597,165.196c.73,37.91-28.73,65.48-64.05,66.37-34.81-.87-63.63-27.31-64.15-63.87-.56-38.62,28.54-66.33,64.14-66.26,35.87.08,63.37,27.52,64.06,63.76Z"/><polygon class="cls-1" points="199.9 113.537 135.273 168.228 158.866 176.52 133.1 219.463 199.9 165.515 175.088 158.389 199.9 113.537"/></g></svg>