<?xml version="1.0" encoding="UTF-8" standalone="no"?>
<!-- Uploaded to: SVG Repo, www.svgrepo.com, Generator: SVG Repo Mixer Tools -->

<svg
   fill="#000000"
   version="1.1"
   id="Capa_1"
   width="800"
   height="800"
   viewBox="0 0 950.341 950.341"
   xml:space="preserve"
   sodipodi:docname="pharmacy-icon-svgrepo-com.svg"
   xmlns:inkscape="http://www.inkscape.org/namespaces/inkscape"
   xmlns:sodipodi="http://sodipodi.sourceforge.net/DTD/sodipodi-0.dtd"
   xmlns="http://www.w3.org/2000/svg"
   xmlns:svg="http://www.w3.org/2000/svg"><defs
   id="defs5" /><sodipodi:namedview
   id="namedview5"
   pagecolor="#505050"
   bordercolor="#eeeeee"
   borderopacity="1"
   inkscape:showpageshadow="0"
   inkscape:pageopacity="0"
   inkscape:pagecheckerboard="0"
   inkscape:deskcolor="#505050"><inkscape:page
     x="0"
     y="0"
     width="950.341"
     height="950.341"
     id="page2"
     margin="0"
     bleed="0" /></sodipodi:namedview>
<g
   id="g5">
	<g
   id="g4"
   style="fill:#008080;fill-opacity:1">
		<path
   d="m 570.737,97.94 c 120.7,0 204.601,115.9 190.4,230.5 -11.8,94.7 -95.9,169.1 -191.4,169.1 h -113 v 110 h 113 c 133.2,0 251.4,-90.3 289.101,-217.5 11.7,-39.5 15.3,-81.399 10.2,-122.3 -3.4,-27.3 -10.5,-54.1 -21,-79.5 -34.601,-83.7 -105,-151.4 -194.601,-176.4 -66.899,-18.6 -139.8,-15.3 -204.5,10 -33.8,13.2 -65.399,32.3 -92.5,56.4 -16.6,14.7 -29.399,31.8 -41.2,50.3 h 152.301 c 29.5,-18.7 65.599,-30.6 103.199,-30.6 z"
   id="path1"
   style="fill:#008080;fill-opacity:1" />
		<path
   d="M 332.737,460.641 V 627.04 c 24.9,6 56,14.5 90,26.2 v -192.6 c 133.7,-20.101 238.601,-128.4 253.5,-263.7 2,-17.7 -12,-33.2 -29.8,-33.2 H 441.038 303.437 109.037 c -17.9,0 -31.8,15.5 -29.8,33.2 14.9,135.3 119.7,243.6 253.5,263.701 z"
   id="path2"
   style="fill:#008080;fill-opacity:1" />
		<path
   d="m 466.237,950.341 c 9.301,0 16.301,-8.301 14.801,-17.5 -4.4,-26.2 -18.5,-49.101 -38.5,-64.9 -3.2,-2.5 -6.5,-4.8 -10,-7 -3.2,-2 -6.601,-3.8 -10,-5.5 v -20.5 c -31.7,-13.2 -63.4,-20.4 -90,-28 v 48.5 c -3.4,1.6 -6.801,3.5 -10,5.5 -3.5,2.1 -6.801,4.5 -10,7 -20,15.8 -34.101,38.7 -38.5,64.9 -1.5,9.1 5.5,17.5 14.8,17.5 z"
   id="path3"
   style="fill:#008080;fill-opacity:1" />
		<path
   d="m 297.538,608.24 v -110.5 c -72.101,2.9 -114.9,62.5 -114.9,135.3 0,46.4 24.9,90.9 64.4,115.2 19.2,11.9 40.9,16.5 62.5,21.9 0,0 0,0 0.1,0 97.8,24.5 197.2,65.7 274.3,131.8 10.4,8.9 23.101,13.3 35.8,13.3 15.5,0 30.9,-6.5 41.801,-19.2 1.3,-1.5 2.399,-3 3.5,-4.6 1.8,-2.6 3.3,-5.3 4.6,-8.1 0.4,-0.9 0.8,-1.9 1.2,-2.801 0.899,-2.199 1.6,-4.5 2.2,-6.699 5,-19.601 -1.101,-41.2 -17.5,-55.301 -67.9,-58.199 -148.9,-99.699 -233,-129.199 -26.2,-9.2 -52.801,-17.301 -79.7,-24.101 -9.8,-2.5 -19.8,-5 -29.7,-7.1 -44.002,-9.699 -44.002,-43.498 -15.601,-49.899 z"
   id="path4"
   style="fill:#008080;fill-opacity:1" />
	</g>
</g>
</svg>
