<?xml version="1.0" encoding="UTF-8"?><svg id="Layer_2" xmlns="http://www.w3.org/2000/svg" xmlns:xlink="http://www.w3.org/1999/xlink" viewBox="0 0 291.455 319.553"><defs><style>.cls-1{fill:#fff;}.cls-2{stroke:#f9ae19;stroke-miterlimit:10;stroke-width:1.951px;}.cls-2,.cls-3{fill:none;}.cls-4{fill:#f9ae19;}.cls-5{fill:#683b8f;}.cls-6{fill:url(#radial-gradient);}.cls-7{fill:url(#radial-gradient-2);}</style><radialGradient id="radial-gradient" cx="146.043" cy="145.69" fx="146.043" fy="145.69" r="91.317" gradientUnits="userSpaceOnUse"><stop offset="0" stop-color="#ddcbe5"/><stop offset="1" stop-color="#8a69ab"/></radialGradient><radialGradient id="radial-gradient-2" cx="146.043" cy="145.69" fx="146.043" fy="145.69" r="91.317" gradientUnits="userSpaceOnUse"><stop offset="0" stop-color="#ddcbe5"/><stop offset=".257" stop-color="#dac8e3"/><stop offset=".449" stop-color="#d2bedd"/><stop offset=".619" stop-color="#c4aed4"/><stop offset=".777" stop-color="#b197c6"/><stop offset=".926" stop-color="#987ab5"/><stop offset="1" stop-color="#8a69ab"/></radialGradient></defs><g id="Layer_1-2"><path class="cls-5" d="m291.454,146.111c-.328,81.142-66.28,145.512-146.084,145.268C64.124,291.131,0,224.977,0,145.809,0,65.107,65.517-.3,146.192.001c81.269.303,145.545,66.425,145.262,146.11Z"/><path class="cls-1" d="m3.931,145.333C4.239,66.71,68.21,3.714,146.124,3.976c78.126.263,141.251,63.415,141.363,141.278.114,79.376-64.039,142.845-143.209,142.235C66.742,286.891,3.456,222.79,3.931,145.333Z"/><g id="Layer_2-2"><circle class="cls-6" cx="146.043" cy="145.69" r="91.317"/><g id="Layer_2-3"><circle class="cls-7" cx="146.043" cy="145.69" r="91.317"/></g><line class="cls-2" x1="147.019" y1="54.372" x2="147.019" y2="145.69"/><line class="cls-2" x1="164.815" y1="56.317" x2="147" y2="145.88"/><line class="cls-2" x1="181.89" y1="61.697" x2="146.944" y2="146.063"/><line class="cls-2" x1="197.587" y1="70.304" x2="146.854" y2="146.232"/><line class="cls-2" x1="211.304" y1="81.808" x2="146.733" y2="146.38"/><line class="cls-2" x1="222.513" y1="95.768" x2="146.585" y2="146.501"/><line class="cls-2" x1="230.783" y1="111.645" x2="146.416" y2="146.591"/><line class="cls-2" x1="235.796" y1="128.831" x2="146.233" y2="146.647"/><line class="cls-2" x1="237.361" y1="146.665" x2="146.043" y2="146.665"/><line class="cls-2" x1="235.416" y1="164.462" x2="145.853" y2="146.647"/><line class="cls-2" x1="230.036" y1="181.537" x2="145.67" y2="146.591"/><line class="cls-2" x1="221.429" y1="197.234" x2="145.501" y2="146.501"/><line class="cls-2" x1="209.924" y1="210.951" x2="145.353" y2="146.38"/><line class="cls-2" x1="195.965" y1="222.159" x2="145.232" y2="146.232"/><line class="cls-2" x1="180.088" y1="230.429" x2="145.142" y2="146.063"/><line class="cls-2" x1="162.901" y1="235.443" x2="145.086" y2="145.88"/><line class="cls-2" x1="145.068" y1="237.007" x2="145.068" y2="145.69"/><line class="cls-2" x1="127.271" y1="235.062" x2="145.086" y2="145.5"/><line class="cls-2" x1="110.196" y1="229.683" x2="145.142" y2="145.317"/><line class="cls-2" x1="94.499" y1="221.076" x2="145.232" y2="145.148"/><line class="cls-2" x1="80.782" y1="209.571" x2="145.353" y2="145"/><line class="cls-2" x1="69.573" y1="195.612" x2="145.501" y2="144.879"/><line class="cls-2" x1="61.303" y1="179.734" x2="145.67" y2="144.789"/><line class="cls-2" x1="56.29" y1="162.548" x2="145.853" y2="144.733"/><line class="cls-2" x1="54.726" y1="144.714" x2="146.043" y2="144.714"/><line class="cls-2" x1="56.671" y1="126.918" x2="146.233" y2="144.733"/><line class="cls-2" x1="62.05" y1="109.843" x2="146.416" y2="144.789"/><line class="cls-2" x1="70.657" y1="94.145" x2="146.585" y2="144.879"/><line class="cls-2" x1="82.162" y1="80.429" x2="146.733" y2="145"/><line class="cls-2" x1="96.121" y1="69.22" x2="146.854" y2="145.148"/><line class="cls-2" x1="111.999" y1="60.95" x2="146.944" y2="145.317"/><line class="cls-2" x1="129.185" y1="55.937" x2="147" y2="145.5"/><line class="cls-2" x1="147.019" y1="54.372" x2="147.019" y2="145.69"/><line class="cls-2" x1="146.389" y1="144.778" x2="211.304" y2="112.191"/><line class="cls-2" x1="146.551" y1="144.88" x2="216.576" y2="125.583"/><line class="cls-2" x1="146.69" y1="145.012" x2="219.134" y2="139.747"/><line class="cls-2" x1="146.8" y1="145.168" x2="218.879" y2="154.138"/><line class="cls-2" x1="146.877" y1="145.343" x2="215.822" y2="168.202"/><line class="cls-2" x1="146.92" y1="145.529" x2="210.079" y2="181.399"/><line class="cls-2" x1="146.924" y1="145.72" x2="201.873" y2="193.223"/><line class="cls-2" x1="146.892" y1="145.909" x2="191.517" y2="203.219"/><line class="cls-2" x1="146.823" y1="146.087" x2="179.41" y2="211.002"/><line class="cls-2" x1="146.721" y1="146.249" x2="166.018" y2="216.274"/><line class="cls-2" x1="146.59" y1="146.388" x2="151.854" y2="218.832"/><line class="cls-2" x1="146.433" y1="146.498" x2="137.464" y2="218.577"/><line class="cls-2" x1="146.259" y1="146.576" x2="123.399" y2="215.52"/><line class="cls-2" x1="146.072" y1="146.618" x2="110.202" y2="209.778"/><line class="cls-2" x1="145.881" y1="146.623" x2="98.378" y2="201.571"/><line class="cls-2" x1="145.692" y1="146.59" x2="88.382" y2="191.215"/><line class="cls-2" x1="145.514" y1="146.521" x2="80.599" y2="179.109"/><line class="cls-2" x1="145.352" y1="146.419" x2="75.327" y2="165.716"/><line class="cls-2" x1="145.214" y1="146.288" x2="72.77" y2="151.552"/><line class="cls-2" x1="145.103" y1="146.131" x2="73.024" y2="137.162"/><line class="cls-2" x1="145.026" y1="145.957" x2="76.081" y2="123.097"/><line class="cls-2" x1="144.984" y1="145.77" x2="81.824" y2="109.9"/><line class="cls-2" x1="144.979" y1="145.579" x2="90.03" y2="98.076"/><line class="cls-2" x1="145.011" y1="145.39" x2="100.386" y2="88.08"/><line class="cls-2" x1="145.08" y1="145.212" x2="112.493" y2="80.297"/><line class="cls-2" x1="145.182" y1="145.05" x2="125.885" y2="75.025"/><line class="cls-2" x1="145.314" y1="144.912" x2="140.049" y2="72.468"/><line class="cls-2" x1="145.47" y1="144.801" x2="154.439" y2="72.722"/><line class="cls-2" x1="145.645" y1="144.724" x2="168.504" y2="75.779"/><line class="cls-2" x1="145.831" y1="144.682" x2="181.701" y2="81.522"/><line class="cls-2" x1="146.022" y1="144.677" x2="193.525" y2="89.728"/><line class="cls-2" x1="146.211" y1="144.709" x2="203.521" y2="100.084"/><line class="cls-2" x1="146.389" y1="144.778" x2="211.304" y2="112.191"/></g><path class="cls-5" d="m35.33,248.72c-2.196-2.852-4.68-5.496-6.841-8.003-.862,1.173-1.472,2.346-2.38,3.185-3.748,3.484-7.635,6.83-11.395,10.314-1.575,1.46-3.024,2.081-4.703-.069-.092.195-.172.379-.253.575,3.311,3.357,6.45,6.922,9.98,10.026,3.081,2.702,6.876,3.024,10.624,1.276,6.485-3.013,10.153-10.601,4.967-17.305Zm-2.403,7.209c-2.173,3.173-5.013,5.623-8.589,7.14-2.691,1.127-5.335.471-6.922-1.621-.69-.92-.851-1.748.115-2.61,4.553-4.093,9.084-8.21,13.625-12.315.195-.172.494-.218.724-.322,3.323,3.507,3.622,5.979,1.046,9.727Z"/><path class="cls-5" d="m47.42,289.293c-2.123-1.306-4.11-2.528-6.308-3.879,3.309-.734,3.892-3.726,5.251-5.927,1.367-2.215,3.724-4.149,3.142-7.436,1.519.935,3.06,1.883,4.732,2.913-.169.551-.339,1.106-.517,1.689,5.941.263,7.22,1.144,7.421,5.264.821-.102,1.625-.249,2.434-.294,1.949-.109,3.679.367,4.854,2.075,1.139,1.656.65,3.26-.259,4.8-1.408,2.387-2.927,4.712-4.252,7.143-.51.936-.616,2.091-.928,3.224-1.706-1.045-3.729-2.285-6.059-3.712.78-.134,1.524-.047,1.702-.325,2.21-3.442,4.366-6.92,6.417-10.459.132-.228-.724-1.479-1.115-1.476-1.206.009-2.964-.022-3.514.709-1.954,2.599-3.551,5.476-5.142,8.327-.295.528.063,1.419.132,2.297-1.972-1.225-3.984-2.474-5.79-3.596.928-.957,2.021-1.822,2.775-2.919,1.406-2.046,2.635-4.216,3.899-6.358.656-1.112,1.502-2.621-.081-3.271-1.057-.434-3.204-.19-3.796.575-1.987,2.568-3.549,5.476-5.136,8.33-.29.521.066,1.4.139,2.305Z"/><path class="cls-5" d="m150.237,296.717c3.307-.314,6.615-.628,9.922-.942-2.522.514-2.392,2.345-2.186,4.282.458,4.317.77,8.652,1.317,12.958.427,3.365,1.978,4.625,5.04,4.514,3.073-.112,5.538-2.177,5.455-5.132-.134-4.758-.503-9.524-1.093-14.246-.14-1.119-1.554-2.08-2.24-2.935,1.393-.133,3.452-.33,5.511-.526-1.931.928-2.052,2.548-1.908,4.376.342,4.32.763,8.644.844,12.972.07,3.752-2.143,5.945-6.312,6.879-4.498,1.007-8.305-.141-9.704-3.289-.759-1.708-1.006-3.687-1.241-5.574-.414-3.318-.621-6.661-.956-9.989-.155-1.539-.358-3.109-2.448-3.347Z"/><path class="cls-5" d="m192.923,313.09c-1.907.479-4.14,1.04-6.201,1.558,0-1.377.203-2.758-.043-4.053-.478-2.51-1.173-4.981-1.851-7.448-.297-1.081-.741-2.635-2.132-1.986-.996.465-2.24,2.059-2.111,2.972.442,3.146,1.381,6.231,2.267,9.3.188.651.953,1.135,1.513,1.764-2.194.562-4.431,1.135-6.736,1.725,1.279-2.314-1.444-13.547-4.074-15.593,2.452.596,4.453-2.223,6.762.405.317-.391.725-.909,1.15-1.413,2.478-2.93,6.308-2.296,7.484,1.335.874,2.699,1.412,5.506,2.257,8.216.348,1.116,1.107,2.105,1.715,3.218Z"/><path class="cls-5" d="m122.281,302.039c1.454.236,3.189.517,5.197.843-.603,3.844-1.244,7.535-1.733,11.246-.188,1.429-.031,2.903-.031,4.39-1.264-.213-3.07-.518-4.955-.836v-1.787c-.299.05-.52.033-.681.124-.432.244-.813.586-1.258.797-1.562.74-3.193.931-4.684-.048-1.571-1.031-2.117-2.631-1.845-4.473.425-2.885.953-5.756,1.296-8.65.112-.946-.213-1.944-.359-3.072,1.44.24,3.196.534,5.23.873-.359,2.414-.692,4.704-1.044,6.991-.206,1.335-.52,2.659-.644,4.001-.118,1.275-.673,2.859,1.328,3.264,1.241.252,2.974-1.225,3.251-2.799.431-2.45.834-4.909,1.107-7.38.121-1.098-.102-2.234-.176-3.485Z"/><path class="cls-5" d="m263.211,251.652c1.547-1.865,3.124-3.767,4.521-5.452.682.717,1.182,1.676,1.937,1.959,2.511.943,5.114,1.643,7.681,2.437.17-.141.339-.283.509-.424-1.54-2.465-3.008-4.981-4.685-7.348-.295-.417-1.463-.216-2.33-.311.751-.913,1.62-1.968,2.506-3.045,1.814,5.647,5.347,10.36,7.945,15.55.922,1.841,1.921,3.659,2.647,5.578.718,1.895-.365,4.095-2.207,4.38-.857.133-1.99-.439-2.718-1.034-.344-.281-.243-1.88.026-1.992.761-.316,1.714-.216,2.589-.191.394.011.783.233,1.168.357.778-2.02-.949-5.747-2.876-6.314-4.296-1.262-8.589-2.539-12.91-3.711-1.185-.322-2.465-.295-3.803-.439Z"/><path class="cls-5" d="m108.701,311.764c-2.036,2.403-4.318,3.05-6.889,2.546-2.516-.494-4.133-2.109-4.83-4.596-1.174-4.189.73-8.886,4.386-10.839,3.011-1.609,7.382-.595,8.572,2.183.379.886.159,2.158-.151,3.138-.105.333-1.696.667-1.965.386-.649-.679-.951-1.708-1.333-2.62-.397-.947-.723-1.924-1.08-2.888-.945.708-2.265,1.219-2.763,2.163-1.32,2.501-1.713,5.244-.927,8.065.85,3.049,2.867,4.03,5.835,2.809.243-.1.504-.154,1.144-.346Z"/><path class="cls-5" d="m242.225,290.299c-2.114,1.404-4.221,2.804-6.383,4.24.551-2.839-6.22-12.781-9.006-12.955,1.768-1.156,3.352-2.192,5.02-3.284.671.839,1.269,1.587,2.141,2.678.175-1.241.207-2.129.442-2.958.247-.871.494-1.898,1.106-2.463.554-.512,1.837-.912,2.366-.608.694.398,1.307,1.544,1.288,2.352-.012.495-1.288,1.386-1.97,1.362-2.13-.075-2.776,1.273-2.135,2.669,1.377,2.997,3.163,5.815,4.937,8.607.254.4,1.379.245,2.193.36Z"/><path class="cls-5" d="m246.243,267.887c.81.924,1.822,2.079,3.234,3.691-1.111-.446-1.667-.833-2.247-.87-1.239-.079-2.545-.182-3.709.14-.531.147-1.101,1.292-1.069,1.955.023.475.995,1.247,1.585,1.287,1.761.12,3.543-.086,5.317-.104,1.835-.019,3.55.332,4.73,1.94,2.065,2.811,1.066,6.223-2.209,7.777-.997.473-1.891,1.163-3.06,1.898-.806-.889-1.879-2.073-3.374-3.722,1.032.375,1.492.649,1.974.696,1.307.128,2.7.446,3.909.126.746-.198,1.22-1.425,1.816-2.191-.792-.585-1.531-1.559-2.387-1.674-1.74-.236-3.543.046-5.319.016-2.832-.049-4.655-1.506-5.064-3.939-.392-2.331.844-4.165,3.362-5.272.855-.376,1.567-1.08,2.511-1.754Z"/><path class="cls-5" d="m255.539,261.019v-9.669c1.149,1.48,2.244,2.891,3.473,4.475,1.411-1.272,2.281-2.057,3.154-2.844q.603.741-1.65,3.845c2.602,2.502,5.208,5.105,7.928,7.583,1.402,1.277,2.246.728,2.763-1.639.711,2.253.226,3.86-1.627,4.972-1.749,1.05-3.397.77-4.85-.642-1.222-1.188-2.428-2.394-3.645-3.587-1.211-1.188-2.428-2.369-3.746-3.655-.463.299-.979.631-1.801,1.161Z"/><path class="cls-5" d="m140.029,303.932v4.03c-.111.044-.222.087-.333.13-.224-.439-.36-.963-.687-1.301-.909-.938-1.796-1.976-2.902-2.606-.473-.269-1.779.163-2.129.673-.298.434-.011,1.671.443,2.144,1.372,1.429,3.186,2.479,4.373,4.025.903,1.176,1.672,2.945,1.521,4.345-.363,3.372-3.319,4.87-6.68,3.882-1.071-.315-2.2-.434-3.473-.676v-4.236c.978,1.201,1.813,2.514,2.931,3.512.971.867,2.331,1.331,3.42.077,1.119-1.289.351-2.392-.65-3.323-1.352-1.257-2.809-2.405-4.116-3.705-1.728-1.717-1.912-4.149-.59-6.031,1.268-1.806,3.489-2.374,5.694-1.595.959.339,2.008.423,3.178.655Z"/><path class="cls-5" d="m82.713,307.468c.397-1.249.846-2.66,1.295-4.072.113-.004.227-.007.34-.011.081.483.061,1.014.262,1.44.563,1.192,1.025,2.529,1.91,3.432.506.516,2.18.712,2.578.31.565-.571.843-1.993.527-2.754-.673-1.62-1.83-3.034-2.748-4.557-1.021-1.695-1.313-3.476-.259-5.257,1.557-2.632,4.584-3.047,7.186-1.103.761.569,1.659.954,2.768,1.577-.312.987-.751,2.378-1.191,3.77-.137.014-.275.029-.412.043-.101-.619-.05-1.322-.333-1.841-.623-1.141-1.296-2.309-2.203-3.211-.315-.314-1.549-.091-2.046.295-.361.281-.469,1.368-.222,1.862.761,1.519,1.755,2.921,2.645,4.376,1.776,2.903,1.638,5.277-.403,7.146-1.99,1.823-4.261,1.732-6.987-.164-.743-.517-1.654-.794-2.706-1.282Z"/><path class="cls-5" d="m211.888,299.779c1.062-4.737.237-8.756-2.24-9.449,1.493-.627,2.752-1.155,3.812-1.6-1.124,5.856-.217,11.855-.791,18.265-4.623-4.317-8.962-8.369-13.26-12.383,1.858-.782,4.127-1.738,6.057-2.55.272.968.292,2.082.839,2.789,1.505,1.945,3.231,3.719,4.869,5.561.238-.211.476-.423.714-.634Z"/><path class="cls-5" d="m191.451,297.005c1.919-.547,3.751-1.069,5.781-1.647,1.234,3.992,2.384,7.912,3.684,11.783.349,1.04,1.154,1.928,1.777,2.928-1.923.598-4.236,1.318-6.751,2.1,2.069-2.915.015-5.418-.751-7.897-.782-2.534-.49-5.794-3.74-7.267Z"/><path class="cls-5" d="m248.385,265.948c1.651-1.464,3.081-2.732,4.595-4.075,2.768,3.084,5.454,6.2,8.299,9.165.792.826,2.054,1.201,3.08,1.772-1.327,1.185-3.063,2.736-4.478,3.999-1.777-2.161-3.318-4.384-5.215-6.244-1.799-1.763-2.728-4.808-6.28-4.618Z"/><path class="cls-5" d="m190.782,290.383c.915-.661,1.764-1.722,2.761-1.886,1.418-.233,2.408.876,2.409,2.339.002,1.442-.941,2.607-2.365,2.402-.999-.144-1.864-1.21-2.789-1.864-.005-.33-.011-.661-.016-.991Z"/><path class="cls-5" d="m247.359,262.202c-.692-.897-1.783-1.714-1.98-2.709-.277-1.403.808-2.384,2.262-2.454,1.482-.071,2.595.84,2.419,2.28-.123,1.005-1.1,1.905-1.696,2.852-.335.01-.67.021-1.005.031Z"/><path class="cls-3" d="m32.927,255.929c-2.173,3.173-5.013,5.623-8.589,7.14-2.691,1.127-5.335.471-6.922-1.621-.69-.92-.851-1.748.115-2.61,4.553-4.093,9.084-8.21,13.625-12.315.195-.172.494-.218.724-.322,3.323,3.507,3.622,5.979,1.046,9.727Z"/><path class="cls-5" d="m45.334,267.483c-1.854-2.652-6.053-4.457-8.37-3.347-.748.359-1.617,1.631-1.497,2.324.134.778,1.325,1.374,2.057,2.049.596-.672,1.526-1.261,1.719-2.034.389-1.56,1.332-1.796,2.273-.99.773.663,1.548,1.953,1.448,2.871-.189,1.738-2.223,3.082-3.524,2.852-2.167-.384-4.327-.934-6.51-1.059-2.096-.12-3.739,1.3-3.95,2.905-.213,1.621,1.054,3.157,3.183,3.699,1.083.276,2.212.37,3.31.545-.229,3.658.981,4.828,3.99,4.584.26-1.121.226-2.009.639-2.567,1.352-1.828,2.871-3.532,4.318-5.291,2.119-2.574,2.378-4.45.915-6.542Zm-8.252,8.358c-1.083,1.147-2.402.732-3.039-.311-.362-.594-.004-2.38.494-2.606,1.509-.686,3.246-.874,4.894-1.256l.408.85c-.914,1.113-1.771,2.279-2.757,3.324Z"/><path class="cls-5" d="m82.641,296.434c1.335-2.876.977-4.827-1.084-6.471-2.524-2.014-6.94-2.622-8.747-1-.594.533-1.122,1.895-.84,2.46.367.738,1.569,1.06,2.412,1.561.437-.769,1.206-1.524,1.24-2.311.069-1.567.922-2.049,2.023-1.493.913.46,2.203,1.734,2.069,2.389-.287,1.398-.351,3.434-2.565,3.614-2.191.178-4.412.144-6.572.497-2.2.36-3.467,2.026-3.302,3.803.159,1.713,1.782,2.87,4.128,2.848,1.097-.011,2.193-.172,3.273-.263.417,3.526,2.225,4.52,5.945,3.105-1.753-.333-1.72-1.163-1.177-2.239,1.088-2.155,2.181-4.31,3.197-6.499Zm-7.01,3.954c-.501.564-2.187.693-2.931.283-1.211-.668-1-2.208-.008-2.892,1.367-.943,3.047-1.433,4.593-2.118.152.217.304.435.457.652-.673,1.385-1.126,2.966-2.111,4.075Z"/><path class="cls-5" d="m231.096,292.671c-.511,2.285-1.515,4.255-4.127,4.01-2.469-.231-4.172-1.806-5.301-4.187,2.557-1.384,4.982-2.696,7.69-4.161-.605-.797-1.017-1.456-1.541-2.01-1.777-1.876-3.913-2.951-6.506-2.115-2.736.882-4.06,3.065-4.321,5.799-.295,3.09.984,5.694,3.058,7.902,2.252,2.398,4.781,2.919,7.514,1.66,2.621-1.207,3.876-3.547,3.534-6.897Zm-11.33-5.866c.003-1.617,1.74-2.263,2.941-1.15,1.065.986,1.841,2.284,2.956,3.714-1.68.923-2.972,1.632-4.882,2.681-.407-1.958-1.018-3.602-1.015-5.246Z"/><path class="cls-5" d="m173.547,264.847c-2.875-1.463-5.327-2.415-8.057-.388-.216-2.558.484-4.281,2.641-5.593,5.09-3.095,10.403-4.466,16.256-2.947,1.195,4.158-2.63,5.163-4.726,7.536,2.681,1.146,5.274,1.779,7.941,1.124.973-.239,1.962-1.184,2.539-2.07.719-1.104,1.093-2.457,1.484-3.743.699-2.296,1.261-4.633,1.953-6.931.877-2.912,3.293-3.707,5.577-1.755,2.112,1.806,3.528,4.12,3.843,6.928.233,2.078-.517,3.012-2.594,3.035-2.314.026-4.632-.269-7.26-.445-.074.435-.169,1.173-.331,1.896-.294,1.314-.491,2.672-.973,3.916-1.042,2.689-3.076,3.886-5.923,3.3-2.633-.542-5.224-1.339-7.779-2.188-1.157-.385-1.949-.351-2.824.566-1.767,1.851-3.642,3.599-5.47,5.392-4.111,4.033-10.498,3.44-13.848-1.303-.615-.871-1.135-1.809-1.738-2.689-1.243-1.814-2.034-2.003-3.872-.723-2.146,1.495-3.753,3.457-4.652,5.956-.747,2.075-1.408,4.191-2.307,6.199-1.659,3.706-4.489,4.018-7.037.809-2.522-3.176-3.075-6.955-3.118-10.862-.008-.681-.001-1.363-.001-2.133-4.514,2.501-8.848,5.026-13.3,7.322-2.38,1.228-4.895,2.316-7.472,3.008-3.012.808-4.787-.633-5.121-3.754-.451-4.212,1.174-7.9,3.193-11.468-.609,2.156-1.346,4.287-1.773,6.479-.204,1.046.002,2.265.344,3.3.384,1.163,1.398,1.842,2.698,1.593,1.46-.279,3.001-.473,4.316-1.103,5.257-2.516,10.465-5.138,15.638-7.825,2.007-1.043,2.151-1.956.559-3.614-1.116-1.162-2.448-2.208-3.864-2.973-4.47-2.415-7.299-6.481-10.536-10.141-.195-.22-.276-.645-.234-.951.162-1.169.397-2.329.615-3.552,1.896,1.28,3.681,2.485,5.823,3.931-1.059.101-1.705.162-2.976.283,1.499,1.33,2.562,2.429,3.779,3.316,1.838,1.34,3.781,2.535,5.683,3.786,3.755,2.468,4.521,4.583,3.847,9.029-.545,3.591-.586,7.234.703,10.741.244.664.54,1.318.884,1.936.742,1.335,1.6,2.669,3.355,2.565,1.903-.112,2.72-1.59,3.407-3.136,1.469-3.304,2.767-6.704,4.516-9.853.809-1.457,2.413-2.561,3.841-3.56,1.337-.934,2.722-.622,3.711.794.733,1.049,1.442,2.115,2.185,3.157,1.749,2.453,3.995,4.113,7.141,3.911,1.152-.074,2.465-.369,3.368-1.027,1.998-1.455,3.782-3.203,5.947-5.087Z"/><path class="cls-5" d="m50.473,200.239c-1.659.585-3.363,1.07-4.964,1.785-1.416.632-2.851,1.356-4.046,2.324-5.025,4.072-5.69,9.327-1.744,14.45,5.874,7.626,13.873,11.802,23.115,13.894,1.635.37,2.177-.874,2.782-1.796.256-.391-.153-1.376-.486-1.963-.77-1.358-1.73-2.608-2.514-3.959-.876-1.51-.746-2.998.407-4.354,1.781-2.094,6.282-2.766,8.452-1.08.684.532,1.373,1.683,1.284,2.462-.237,2.081-.671,4.207-1.471,6.13-.488,1.172-.473,1.914.441,2.535,1.154.784,2.369,1.571,3.674,2.02,1.783.614,3.675.911,5.961,1.447-2.364,1.166-2.93,2.792-2.244,4.783.735,2.136,2.516,3.199,4.592,3.264,2.161.068,4.338-.396,6.422-.618-.431.691-1.28,1.463-1.377,2.32-.282,2.499,1.767,4.222,4.225,3.621,1.544-.377,3.017-1.047,4.998-1.756-.399.652-.529.855-.651,1.063-.991,1.69-1.044,3.408.094,5.012,1.094,1.541,2.723,2.026,4.536,1.731.902-.147,1.786-.476,2.644-.808,2.369-.918,4.709-1.912,7.083-2.818,3.32-1.267,5.412.298,5.037,3.801-.264,2.464-1.147,4.71-2.944,6.484-1.638,1.617-2.879,1.676-4.31-.118-1.44-1.805-2.563-3.864-3.944-5.996-.512.297-1.19.846-1.964,1.108-1.661.562-3.361,1.321-5.066,1.381-4.049.141-6.153-2.941-4.947-6.846.057-.183.041-.388.079-.798-1.098.322-2.068.671-3.067.889-4.416.965-6.124-.646-5.196-5.23-.755.122-1.411.346-2.052.309-1.747-.099-3.631.058-5.2-.554-2.876-1.122-3.624-4.06-2.092-6.75.271-.476.54-.954.902-1.591-3.469-.987-7.387-.512-9.518-3.944-.281.055-.453.039-.554.115-3.976,3.023-8.181,2.553-12.554.988-6.03-2.158-11.69-4.922-16.227-9.555-6.448-6.586-6.081-13.111.976-19.013,3.27-2.735,7.204-3.856,11.215-4.785.071.139.142.277.213.416Z"/><path class="cls-5" d="m192.241,231.995c4.145,4.46,8.21,8.999,12.468,13.349,2.269,2.318,4.696,4.566,7.37,6.377,2.788,1.887,5.9,1.553,8.925.005,7.318-3.744,12.449-9.576,16.242-16.72,1.093-2.059,2.128-4.149,3.32-6.481-1.261-.394-2.232-.806-3.245-.996-6.223-1.168-8.548-9.533-3.627-13.424,3.068-2.426,6.064-4.944,9.051-7.469,2.494-2.108,4.929-4.286,7.396-6.438,2.367,1.799,2.34,2.217,1.452,4.967-.937,2.902-1.47,5.932-2.271,8.881-1.173,4.317-2.521,8.589-3.583,12.932-.261,1.066.295,2.331.454,3.365-1.653-1.386-2.249.091-2.984,1.669-3.39,7.281-7.342,14.215-13.89,19.162-2.641,1.996-5.518,3.828-8.55,5.123-4.839,2.067-9.284.767-12.805-3.047-4.003-4.335-7.806-8.854-11.7-13.29-.469-.534-.901-1.127-1.457-1.555-1.974-1.517-3.078-3.445-2.565-6.411Z"/><path class="cls-5" d="m230.482,202.532c.207.769.762,1.642.57,2.293-3.712,12.54-7.512,25.055-11.72,37.805-.208-.847-.779-1.8-.569-2.527,3.546-12.295,7.189-24.561,10.815-36.833.059-.2.174-.384.263-.576l.641-.162Z"/><path class="cls-5" d="m183.348,237.866c-.52.772-.868,1.81-1.586,2.275-10.73,6.948-21.509,13.821-32.28,20.707-.166.106-.369.155-1.07-.043.424-.812.635-1.954,1.304-2.387,10.855-7.02,21.768-13.951,32.671-20.896.108-.069.269-.053.405-.076.185.14.37.28.555.42Z"/><path class="cls-5" d="m84.754,256.991c-2.673,1.734-3.999,1.059-4.469-3.214-5.616,2.858-9.775-.877-14.327-2.983,5.044.408,9.822,3.397,14.676,1.465.776,1.248,1.281,3.051,2.239,3.336,1.052.314,2.521-.77,3.628-1.179-.287,1.376.462,2.378,2.518,2.514.13-.986.251-1.894.371-2.802.747,1.773.629,3.621-.979,4.398-.719.348-2.198-.878-3.657-1.535Z"/><path class="cls-5" d="m206.757,235.59c-.653-.78-1.503-1.974-2.531-2.989-2.204-2.175-2.465-2.141-4.733.06-.588-.323-1.231-.676-1.874-1.029,1.621-3.017,2.265-2.994,7.072.181-.105-1.809-.317-3.51-.278-5.206.068-2.929.787-3.49,3.935-3.305.433,1.416.389,2.507-1.548,2.507-1.474,0-1.89.99-1.684,2.14.48,2.67,1.129,5.309,1.64,7.641Z"/><path class="cls-5" d="m191.848,275.29c.293-.562.469-1.241.897-1.668,3.668-3.654,7.357-7.287,11.102-10.861.662-.632,1.613-.96,2.431-1.428.166.247.332.495.498.742-4.822,4.479-9.643,8.958-14.465,13.437-.154-.074-.309-.148-.463-.222Z"/><path class="cls-5" d="m217.043,222.667c-1.802,6.625-3.525,12.96-5.413,19.901-.282-.992-.61-1.523-.54-1.995,1.175-7.901,4.042-17,5.953-17.906Z"/><path class="cls-5" d="m114.948,241.806c-6.554.373-13.108.746-19.663,1.119-.05-.147-.1-.294-.15-.441.561-.239,1.108-.637,1.687-.691,5.079-.476,10.162-.93,15.25-1.289.978-.069,1.987.308,2.982.479-.035.274-.071.548-.106.823Z"/><path class="cls-5" d="m140.81,249.599c-.991,0-1.81-.128-2.575.023-2.748.544-5.478,1.183-8.291,1.397,2.565-.722,5.13-1.443,7.694-2.165,1.019-.287,1.473-.72,1.177-1.979-.438-1.865,2.143-4.141,4.036-3.758,1.45.294,1.772,1.549.712,2.968-.948,1.269-1.953,2.496-2.754,3.514Z"/><path class="cls-5" d="m94.507,226.087c.446,1.354,1.006,2.538,1.175,3.776.092.679-.272,1.679-.785,2.135-1.628,1.446-2.425,1.182-3.095-.869-1.179-3.608-1.332-2.926,2.705-5.042Z"/><path class="cls-5" d="m147.521,245.888c4.422,3.52,4.566,3.953,2.174,6.547-4.397-2.007-4.773-3.139-2.174-6.547Z"/><path class="cls-5" d="m87.592,236.475c-2.492-3.992-2.016-5.506,2.041-6.49,1.436,5.396,1.34,5.701-2.041,6.49Z"/><path class="cls-5" d="m62.032,205.475c.251,5.731.158,5.898-3.225,5.96-1.733-4.011-.841-5.734,3.225-5.96Z"/><path class="cls-5" d="m48.134,104.162c-9.417-4.225-18.546-8.32-27.578-12.373,1.261-1.307,2.448-2.537,3.548-3.677.713.563,1.5,1.465,2.492,1.924,6.199,2.865,12.443,5.632,18.677,8.423.18.081.408.054.689.085.633-1.182,1.261-2.365,1.897-3.543.595-1.1-.043-1.716-.865-2.285-3.986-2.763-4.434-4.187-2.76-8.736q.911-2.475-.099-4.887c3.351,1.886,6.389,3.597,9.556,5.38,2.351-2.94,4.649-5.813,7.12-8.903-2.85-2.258-5.615-4.448-8.38-6.638-2.398-1.899-4.758-3.848-7.212-5.671-.955-.71-1.369-1.408-1.324-2.641.044-1.233-.339-2.482-.571-3.958,6.675,5.237,13.21,10.364,19.926,15.633,1.61-1.535,3.182-3.033,4.717-4.497-.091-.242-.102-.425-.185-.469-5.031-2.629-6.22-6.034-3.928-11.295.256-.587.563-1.153.793-1.749.9-2.325.359-3.963-1.74-5.288-.519-.328-1.065-.613-1.708-.98,4.881-1.666,7.073.504,6.644,6.332,4.533-.891,6.381.448,5.278,3.824-2.342-2.041-4.036-2.101-5.518-.194-1.325,1.705-.958,4.012.835,5.243,2.222,1.526,4.692.534,6.441-2.524,1.376.649,2.75,1.297,4.452,2.1-13.283,11.381-24.332,24.656-31.198,41.364Z"/><path class="cls-5" d="m240.226,48.672c-5.502,6.404-10.863,12.644-16.311,18.984,3.632,4.533,7.219,9.01,10.878,13.577,1.044-.819,1.914-1.503,2.92-2.292-1.842-2.378-3.564-4.602-5.111-6.599,1.354-.827,2.756-1.444,3.86-2.403,3.515-3.053,6.946-2.875,9.994.683,1.183,1.381,2.07,3.23,4.596,3.019-5.574,4.415-11.149,8.829-16.9,13.384-4.354-5.473-8.63-10.846-12.872-16.179-5.237,2.082-8.158,1.483-10.288-1.938-1.373-2.205-1.327-6.365,1.708-8.446-.507.862-.822,1.364-1.104,1.884-.991,1.829-.778,3.796.541,5.122,1.405,1.413,3.537,1.804,5.287.78.897-.525,1.703-1.285,2.392-2.075,4.534-5.203,9.048-10.425,13.512-15.687.899-1.06,1.805-1.634,3.26-1.501,1.091.1,2.217-.175,3.636-.312Z"/><path class="cls-5" d="m88.55,57.481c.817-.871,1.54-1.642,2.425-2.586-1.322-2.242-.875-4.8.496-7.209-.114-.235-.141-.419-.242-.48-3.306-1.989-3.971-4.884-3.123-8.461.49-2.065.645-4.209.991-6.595,1.477.861,2.825,1.647,4.271,2.49-.503-3.555-3.175-6-6.269-5.909-2.524.074-4.222,2.035-4.538,5.634-.773-1.612-2.684-2.463-.855-4.345.667-.686.241-1.666-.728-1.729-2.217-.143-1.281-1.41-1.117-3.141,2.063,2.587,4.593,2.424,7.063,2.579,3.713.233,6.008,2.312,7.263,6.184.272.84.925,1.734,1.657,2.218,3.023,1.999,6.13,3.872,9.24,5.735.566.339,1.358.703,1.927.565,2.47-.599,4.896-1.38,7.512-2.145-.571-2.087-1.176-3.975-1.569-5.907-.145-.71.058-1.595.375-2.273.561-1.201,1.331-2.304,2.119-3.624,1.39,4.839,2.776,9.663,4.191,14.592-4.499,1.334-8.772,2.64-13.078,3.827-.554.153-1.353-.18-1.91-.507-2.639-1.544-5.23-3.168-7.845-4.753-.591-.358-1.209-.671-1.962-1.087-.314,1.194-.576,2.19-.87,3.308,1.284.881,2.607,1.702,3.833,2.648,4.184,3.23,3.625,9.42-1.105,11.299-1.128.448-2.588.113-3.891.056-1.208-.052-2.412-.214-4.26-.388Z"/><path class="cls-5" d="m142.613,35.75c-.193-2.422-.359-4.522-.554-6.971-.791.423-1.531.566-1.679.941-.748,1.897-2.358,1.72-3.894,1.839-4.596.356-9.191.736-13.94,1.119-.325-4.099-.637-8.034-.94-11.857,2,.657,3.919,1.289,5.574,1.833-.379,1.69-.776,3.467-1.185,5.294,7.538.831,13.684-1.495,19.646-5.061.445,5.503.883,10.926,1.341,16.597-6.536.544-12.944,1.076-19.955,1.66.614,1.866,1.129,3.43,1.688,5.129-1.257.89-2.855,2.022-4.783,3.387-.337-4.144-.658-8.097-.998-12.283,6.579-.544,12.995-1.074,19.68-1.627Z"/><path class="cls-5" d="m235.911,90.312c1.937-.889,3.719-1.617,5.417-2.504,4.108-2.145,6.981-1.396,9.356,2.565.946,1.578,1.659,3.408,4.116,3.447-3.6,2.09-7.189,4.2-10.805,6.261-2.037,1.161-4.059,2.376-6.197,3.322-2.964,1.31-5.082.877-6.807-1.066-1.986-2.237-2.301-4.876-.788-7.912.469,2.548,1.799,4.278,4.106,4.902,2.057.556,3.907-.193,5.681-1.768-1.397-2.481-2.805-4.983-4.08-7.247Z"/><path class="cls-5" d="m186.93,43.685c1.278-4.173,1.948-8.641,7.27-8.931-1.487,4.419-3.081,9.158-4.745,14.103-6.142-2.054-12.118-4.052-18.314-6.124,1.563-4.676,3.083-9.225,4.584-13.715.816,1.199,1.66,2.335,2.375,3.548.238.403.301,1.047.172,1.503-.445,1.573-.966,3.128-1.545,4.657-.389,1.026-.186,1.528.918,1.87,2.983.924,5.93,1.963,9.286,3.088Z"/><path class="cls-5" d="m207.292,45.916c-2.701,4.721-5.268,9.461-8.089,14.045-1.695,2.756-6.04,2.701-8.52-.079-1.014-1.137-1.518-2.727-2.254-4.112.181-.116.363-.232.544-.348.44.392.851.826,1.326,1.169,2.316,1.671,5.05,1.43,6.579-.829,1.509-2.23,2.864-4.592,4.001-7.03.497-1.066.285-2.464.384-3.594,1.893.245,3.826.494,6.029.779Z"/><path class="cls-5" d="m148.776,45.523c.93.341,1.552.651,2.21.797,2.668.593,5.25-1.147,5.567-3.875.286-2.464.513-4.956.468-7.43-.023-1.268-.7-2.525-1.066-3.734,1.74-.594,3.635-1.241,5.657-1.931-.389,5.319-.711,10.683-1.209,16.031-.184,1.984-1.408,3.408-3.429,3.894-2.764.664-5.214.059-7.179-2.071-.366-.397-.577-.938-1.019-1.682Z"/><path class="cls-5" d="m254.292,68.462c-.164,1.308-.909,2.316-2.482,2.456-1.425.127-2.835-1.226-2.695-2.62.152-1.507,1.013-2.471,2.593-2.542,1.408-.063,2.58,1.127,2.584,2.706Z"/><path class="cls-5" d="m160.473,24.308c-.165,1.467-.992,2.383-2.582,2.425-1.439.038-2.714-1.332-2.569-2.788.156-1.577,1.131-2.446,2.703-2.374,1.591.074,2.38,1.065,2.449,2.736Z"/><path class="cls-5" d="m96.29,60.078c1.506.214,2.485.97,2.53,2.58.043,1.522-1.195,2.72-2.702,2.579-1.548-.145-2.495-1.042-2.405-2.636.086-1.523.973-2.427,2.576-2.523Z"/><path class="cls-5" d="m102.013,62.196c-1.48-.029-2.512-1.116-2.471-2.602.04-1.475,1.163-2.564,2.585-2.506,1.426.058,2.552,1.234,2.513,2.626-.04,1.443-1.17,2.511-2.627,2.482Z"/><path class="cls-5" d="m181.815,51.836c-.204,1.452-.9,2.494-2.513,2.597-1.495.095-2.752-1.152-2.654-2.646.104-1.577,1.028-2.49,2.592-2.491,1.571-.001,2.441.915,2.575,2.541Z"/><path class="cls-5" d="m250.61,63.851c-.215,1.504-1.088,2.406-2.689,2.324-1.577-.081-2.521-.999-2.443-2.613.078-1.604,1.149-2.482,2.668-2.439,1.56.045,2.392,1.07,2.464,2.728Z"/><path class="cls-5" d="m105.295,20.381c.126-1.724,1.379-2.792,2.908-2.607,1.637.199,2.348,1.27,2.185,2.801-.163,1.536-1.117,2.423-2.732,2.302-1.629-.122-2.283-1.176-2.36-2.497Z"/><path class="cls-5" d="m154.143,245.98c4.263,2.1,4.465,2.736,1.952,5.888-4.106-1.797-4.442-2.744-1.952-5.888Z"/><path class="cls-5" d="m92.91,239.96c-1.835-3.994-1.718-4.532.632-5.626,1.346-.627,1.735-.031,2.128,1.063,1.082,3.007.907,3.341-2.76,4.564Z"/><path class="cls-5" d="m63.252,215.732c-.915-4.451-.416-5.261,3.155-5.117,1.282,4.452.788,5.252-3.155,5.117Z"/><path class="cls-5" d="m257.36,218.919c-2.929,2.699-3.537,2.607-5.956-.899,2.827-2.901,4.277-2.681,5.956.899Z"/><path class="cls-5" d="m61.945,242.834c-.665.312-1.208.567-2.461,1.155.077-1.645-.221-2.969.26-3.883.855-1.627,4.117-2.337,5.99-1.651-4.777.755-4.805.785-3.789,4.379Z"/><path class="cls-5" d="m189.26,238.033c0,.846-.051,1.696.012,2.537.102,1.377.568,2.44,2.261,1.82,1.155-.423,1.737.204,1.702,1.126-.017.435-.917,1.138-1.454,1.174-.656.044-1.615-.293-1.982-.799-1.305-1.797-1.617-3.814-.539-5.859Z"/><path class="cls-5" d="m234.5,199.845c.316.927.537,1.733.863,2.494.611,1.426,1.285,2.553,3.147,1.269.427-.294,1.485.327,2.252.526-.019.382-.037.765-.056,1.147-1.117.204-2.354.813-3.326.526-1.787-.53-3.056-3.489-2.88-5.962Z"/><path class="cls-5" d="m139.326,257.195c-.216,1.236-.425,2.125-.514,3.026-.12,1.218.213,2.146,1.715,2.006,1.536-.142,1.779.716,1.524,2.518-1.151-.356-2.442-.396-3.162-1.057-1.287-1.182-.972-4.401.437-6.493Z"/><path class="cls-5" d="m233.744,236.268c-.423-1.136-.69-1.935-1.016-2.71-.593-1.406-1.357-2.023-2.932-1.007-.486.314-1.508-.202-2.284-.339-.008-.407-.016-.813-.024-1.22,1.113-.227,2.31-.826,3.319-.597,1.739.395,3.046,3.239,2.937,5.872Z"/><path class="cls-5" d="m52.06,205.749c-.817.154-1.642.278-2.45.469-1.403.332-2.449.878-1.532,2.618.821,1.557-.53,1.668-1.906,2.645-.109-1.631-.647-3.028-.167-3.748,1.369-2.054,3.626-2.476,6.055-1.983Z"/><path class="cls-5" d="m78.528,227.742c.937-1.052,1.478-1.613,1.964-2.217.882-1.097,1.198-2.135-.432-2.871-1.528-.69-.919-1.605-.02-3.038.862.969,1.941,1.673,2.23,2.619.507,1.659-1.191,4.116-3.742,5.508Z"/><path class="cls-1" d="m179.183,258.898c-2.622,3.645-2.769,3.673-5.908,1.218,2.246-.463,4.077-.841,5.908-1.218Z"/><path class="cls-1" d="m194.489,255.517c1.826-2.801,3.396-2.655,4.98.395-1.738-.138-3.168-.251-4.98-.395Z"/><path class="cls-1" d="m49.86,91.407c-2.856-1.804-3.15-2.566-2.172-5.606,1.296.695,2.552,1.368,4.05,2.172-.642,1.174-1.226,2.243-1.877,3.434Z"/><path class="cls-1" d="m112.308,256.998c-.924-1.538-1.682-2.801-2.584-4.302,3.33-.031,4.064,1.183,2.584,4.302Z"/><path class="cls-1" d="m67.787,225.478c-.712-1.312-1.425-2.624-2.137-3.936l.529-.638c.743.402,1.855.632,2.144,1.247.431.918.282,2.108.38,3.182-.305.048-.611.096-.916.144Z"/><path class="cls-1" d="m247.04,208.793c-.769,5.231-2.196,9.851-4.123,14.318-1.465,3.396-1.52,3.372-5.215,2.626-4.36-.88-5.328-3.308-2.559-6.865,1.25-1.605,2.784-3.029,4.357-4.333,2.323-1.925,4.795-3.67,7.541-5.746Z"/><path class="cls-1" d="m241.001,76.414c-.922-1.209-1.59-2.083-2.243-2.94,2.245-2.202,3.148-2.11,5.217.57-.941.75-1.885,1.503-2.973,2.37Z"/><path class="cls-1" d="m92.563,47.896c1.157.903,2.572,1.624,3.388,2.77.621.872.936,2.481.542,3.399-.349.813-1.98,1.691-2.832,1.514-.985-.205-2.312-1.443-2.46-2.393-.26-1.67.265-3.461.461-5.202.3-.029.6-.058.901-.088Z"/><path class="cls-1" d="m92.495,43.295c-.189-1.297-.379-2.594-.594-4.068,2.555.646,2.697,1.23,1.369,3.901-.258.056-.516.111-.774.167Z"/><path class="cls-1" d="m243.702,95.612c-.694-1.202-1.252-2.166-1.799-3.112,2.621-2.491,4.085-2.338,5.772.76-1.228.727-2.47,1.462-3.974,2.352Z"/><path class="cls-1" d="m141.322,243.947c.474.711,1.053,1.275.946,1.474-.365.686-.969,1.245-1.483,1.853-.341-.555-.972-1.128-.938-1.66.031-.486.779-.927,1.474-1.667Z"/><path class="cls-5" d="m183.946,146.642c5,8.198,6.944,17.11,6.008,26.494-.92,9.225-4.581,17.411-10.916,24.391-4.333,4.774-9.416,8.442-15.264,10.893-4.35,1.823-8.98,2.833-13.798,3.132-6.442.4-12.613-.568-18.559-2.832-4.579-1.744-8.712-4.35-12.42-7.622-3.601-3.178-6.606-6.806-9.012-10.954-2.55-4.397-4.224-9.105-5.074-14.104-.839-4.935-.808-9.898.034-14.811.818-4.769,2.478-9.28,4.837-13.53,2.508-4.52,5.793-8.432,9.704-11.731,2.468-2.082,5.391-3.618,8.073-5.454.581-.398,1.334-.965,1.447-1.561,1.613-8.511,3.104-17.045,4.676-25.564,1.576-8.537,3.211-17.064,4.815-25.595.329-1.749.625-3.504.961-5.252.555-2.885,2.041-5.064,4.64-6.568.683-.395,1.328-1.454,1.376-2.245.167-2.762-.29-6.437-.29-9.327,1.704-.363,3.117-.01,4.654-.001,1.068.006-.328,4.719.131,6.03-.233,2.744,0,4.129,1.573,6.292,1.18,1.442,2.999,4.359,3.447,6.463,1.574,7.377,2.767,14.834,4.165,22.249,1.331,7.059,2.772,14.098,4.097,21.158.746,3.975,1.308,7.984,2.071,11.955.136.71.704,1.588,1.322,1.917,7.235,3.839,13.009,9.142,17.3,16.178h0Z"/><path class="cls-1" d="m137.502,202.406h20.126c-.834-2.678,1.038-3.4,2.852-4.39,6.755-3.687,11.878-9.212,16.586-15.159.282-.356.48-1.209.272-1.457-4.466-5.321-4.266-12.074-5.575-18.321-1.868-8.909-3.404-17.888-5.075-26.839-.037-.197-.005-.407-.005-.625,9.708,4.329,21.165,18.977,19.159,37.646-1.945,18.101-17.454,33.059-35.681,34.256-19.656,1.291-36.72-11.404-40.975-30.746-4.175-18.982,7.013-35.573,18.662-41.389-.395,2.24-.739,4.317-1.129,6.385-2.059,10.907-4.007,21.837-6.287,32.697-.549,2.613-2.213,4.993-3.576,7.937,1.768,2.032,3.75,4.525,5.956,6.8,3.728,3.844,7.829,7.219,12.622,9.745.912.48,1.255,2.039,2.067,3.461Z"/><path class="cls-4" d="m160.727,194.05c-15.928,8.766-29.811.31-40.885-12.737,3.486-4.5,15.819-15.954,19.022-17.983,5.443-.225,10.188-.391,15.635-.451,5.201.981,17.102,15.923,20.077,18.33l-13.849,12.841Z"/><path class="cls-1" d="m145.539,69.344v56.172c-4.371.858-8.647,1.697-13.081,2.567,0-.277-.083-.802.012-1.293,2.289-11.851,4.608-23.696,6.899-35.547,1.107-5.725,2.158-11.46,3.259-17.187.331-1.722.707-3.45,2.911-4.714Z"/><path class="cls-1" d="m162.183,128.053c-4.234-.732-8.103-1.528-12.01-2.013-1.551-.192-1.45-1.008-1.45-2.009,0-5.763-.014-11.527.019-17.29.065-11.596.157-23.192.237-34.788.005-.765,0-1.53,0-2.468,1.934.644,2.319,2.09,2.603,3.533,1.154,5.859,2.265,11.726,3.388,17.59.909,4.747,1.837,9.491,2.713,14.244,1.132,6.144,2.199,12.3,3.342,18.442.306,1.642.787,3.252,1.158,4.759Z"/><path class="cls-1" d="m124.164,170.834c.718-3.883,1.413-7.693,2.127-11.499,1.27-6.766,2.55-13.53,3.83-20.294.336-1.776,2.87-2.895,4.353-1.864.325.226.51.835.537,1.282.434,7.087.85,14.176,1.2,21.267.026.521-.352,1.213-.761,1.582-3.518,3.179-7.086,6.303-10.647,9.434-.085.075-.265.042-.641.091Z"/><path class="cls-1" d="m170.378,170.309c-.718-3.883-1.413-7.693-2.127-11.499-1.27-6.766-2.55-13.53-3.83-20.294-.336-1.776-2.87-2.895-4.353-1.864-.325.226-.51.835-.537,1.282-.434,7.087-.85,14.176-1.2,21.267-.026.521.352,1.213.761,1.582,3.518,3.179,7.086,6.303,10.647,9.434.085.075.265.042.641.091Z"/><path class="cls-4" d="m138.828,142.793c.011-.345.862-.945,1.33-.952,4.7-.067,9.402-.024,14.103-.039,1.229-.004,1.603.611,1.534,1.745-.3,4.966-.539,9.936-.912,14.897-.033.443-.854,1.174-1.322,1.185-4.129.093-8.261.043-12.392.058-1.273.005-1.56-.759-1.513-1.812.131-2.959-.93-11.821-.827-15.082Z"/><path class="cls-1" d="m162.888,134.131c-4.326,0-8.653.037-12.978-.059-.416-.009-1.036-.782-1.168-1.3-.199-.78-.052-1.648-.052-2.71,5.275.027,9.904,1.301,14.356,3.287-.053.26-.105.521-.158.781Z"/><path class="cls-1" d="m131.316,133.381c4.487-2.087,9.194-3.257,14.333-3.371v3.979h-14.221c-.037-.202-.075-.405-.112-.607Z"/><path class="cls-4" d="m138.272,137.493h17.627c-.063.784-.112,1.384-.179,2.223-5.429,0-10.742.001-16.056,0-1.679,0-1.416-1.137-1.392-2.223Z"/></g></svg>